<svg width="500" height="501" viewBox="0 0 500 501" fill="none" xmlns="http://www.w3.org/2000/svg">
    <g clip-path="url(#0z0end5d1a)" stroke-width="2.5" stroke-linecap="round">
        <path opacity=".91" d="M384.36 15.683a327.032 327.032 0 0 1 19.154-1.687 297.367 297.367 0 0 1 19.326-.358c6.475.164 12.979.56 19.499 1.187a284.948 284.948 0 0 1 19.639 2.85 299.447 299.447 0 0 1 19.648 4.521 322.491 322.491 0 0 1 19.468 6.104 335.257 335.257 0 0 1 18.931 7.506 316.045 316.045 0 0 1 17.929 8.67 270.917 270.917 0 0 1 16.377 9.558 207.425 207.425 0 0 1 14.271 10.177c4.264 3.447 8.207 6.969 11.821 10.55a133.15 133.15 0 0 1 9.387 10.73c3.995 5.357 11.164 16.161 14.696 21.593a232.297 232.297 0 0 0 8.364 10.804 176.835 176.835 0 0 0 11.448 10.863c4.749 3.619 9.969 7.29 15.637 11.028 6.161 3.693 12.688 7.454 19.513 11.296a1280.055 1280.055 0 0 1 21.223 11.677c6.87 3.962 13.352 8.014 19.289 12.17 5.325 4.148 9.843 8.394 13.442 12.744 2.733 4.35 4.458 8.811 5.197 13.378-.015 4.574-.836 9.252-2.3 14.035-1.725 4.797-3.666 9.699-5.585 14.698-1.464 5.014-2.427 10.133-2.681 15.341.784 5.223 2.546 10.543 5.347 15.937 3.913 5.417 8.729 10.916 14.27 16.49 6.116 5.581 12.434 11.244 18.625 16.967 5.839 5.73 10.895 11.527 14.875 17.384 2.808 5.865 4.16 11.774 3.973 17.743-1.516 5.969-4.406 11.983-8.446 18.042-4.705 6.058-9.895 12.154-15.182 18.295-4.809 6.133-8.916 12.237-12.03 18.295-1.815 6.066-2.367 12.087-1.68 18.079 1.971 5.984 4.861 11.938 8.401 17.855 4.04 5.924 8.065 11.811 11.724 17.676 3.159 5.872 5.362 11.714 6.4 17.534-.097 5.849-1.554 11.669-4.346 17.481-3.899 5.843-8.872 11.677-14.712 17.505-6.355 5.872-13.068 11.744-19.849 17.631-6.541 5.924-12.687 11.871-18.251 17.84-4.764 6.014-8.722 12.057-11.851 18.116a89.533 89.533 0 0 0-4.495 18.444c-.187 6.223-.038 12.468.268 18.721.463 6.297.747 12.602.687 18.899a97.77 97.77 0 0 1-2.912 18.862c-2.18 6.245-5.1 12.423-8.745 18.512-4.249 6.029-9.162 11.945-14.659 17.713-5.936 5.671-12.306 11.147-18.99 16.422a392.826 392.826 0 0 1-21.044 14.572 430.264 430.264 0 0 1-20.954 12.207c-6.691 3.499-13.173 6.648-19.438 9.416-6.012 2.522-11.792 4.656-17.355 6.402-5.302 1.515-10.425 2.656-15.398 3.44-4.765.589-9.425.85-14.025.82a137.208 137.208 0 0 1-13.382-1.104c-4.391-.575-8.849-1.276-13.397-2.059a708.221 708.221 0 0 0-13.912-1.903c-4.764-.351-9.671-.56-14.719-.612-5.07.306-10.29.836-15.652 1.612-5.384 1.186-10.918 2.649-16.586 4.38-5.682 2.141-11.5 4.536-17.444 7.155a946.898 946.898 0 0 0-18.206 9.334c-6.191 3.447-12.479 6.917-18.871 10.334-6.392 3.447-12.807 6.685-19.229 9.655-6.415 2.82-12.837 5.253-19.259 7.26-6.422 1.708-12.837 2.917-19.237 3.604-6.4.298-12.777.029-19.139-.791-6.341-1.231-12.658-3.015-18.938-5.32-6.258-2.679-12.471-5.835-18.632-9.439-6.131-3.88-12.195-8.125-18.177-12.691a406.366 406.366 0 0 1-17.541-14.841 662.583 662.583 0 0 1-16.728-15.84 1122.012 1122.012 0 0 1-15.771-15.774 2949.751 2949.751 0 0 1-14.756-14.892c-4.72-4.641-9.313-9.14-13.771-13.498-4.436-4.118-8.759-8.08-12.979-11.908a950.048 950.048 0 0 0-12.448-10.409c-4.122-3.141-8.192-6.2-12.225-9.199-4.099-2.828-8.162-5.626-12.202-8.409a693.171 693.171 0 0 1-12.217-8.111 312.152 312.152 0 0 1-12.045-8.267 204.674 204.674 0 0 1-11.538-8.819 163.885 163.885 0 0 1-10.671-9.677 148.304 148.304 0 0 1-9.626-10.745 166.063 166.063 0 0 1-8.632-11.908 214.5 214.5 0 0 1-7.886-13.08 281.65 281.65 0 0 1-7.37-14.221 310.566 310.566 0 0 1-6.894-15.251 277.45 277.45 0 0 1-6.16-16.176 244.646 244.646 0 0 1-5.034-16.959 249.437 249.437 0 0 1-3.666-17.617 316.553 316.553 0 0 1-2.442-18.168 529.84 529.84 0 0 1-1.695-18.616 849.707 849.707 0 0 1-1.39-18.989 624.588 624.588 0 0 1-1.157-19.302 373.3 373.3 0 0 1-.455-19.347 271.74 271.74 0 0 1 .866-19.146 263.611 263.611 0 0 1 2.48-18.937 334.37 334.37 0 0 1 3.867-18.728 522.602 522.602 0 0 1 4.757-18.541 696.821 696.821 0 0 1 5.213-18.355 587.6 587.6 0 0 1 5.593-18.183 433.855 433.855 0 0 1 6.206-18.004 376.96 376.96 0 0 1 7.131-17.825 397.613 397.613 0 0 1 8.177-17.594 477.295 477.295 0 0 1 9.089-17.31 569.984 569.984 0 0 1 9.663-16.945 637.84 637.84 0 0 1 9.977-16.46 519.978 519.978 0 0 1 10.245-15.847 382.317 382.317 0 0 1 10.671-15.08 292.095 292.095 0 0 1 11.418-14.154 245.703 245.703 0 0 1 12.471-13.079 232.904 232.904 0 0 1 13.674-11.886 237.332 237.332 0 0 1 14.823-10.603 260.49 260.49 0 0 1 15.757-9.304 294.512 294.512 0 0 1 16.391-8.043 329.127 329.127 0 0 1 16.705-6.88 371.156 371.156 0 0 1 16.81-5.88 428.16 428.16 0 0 1 16.772-5.095 521.39 521.39 0 0 1 16.721-4.53 621.553 621.553 0 0 1 16.72-4.178 728.265 728.265 0 0 1 16.824-4.006 790.799 790.799 0 0 1 17.027-3.932 750.332 750.332 0 0 1 17.347-3.865 610.647 610.647 0 0 1 17.758-3.701 481.944 481.944 0 0 1 18.236-3.343 388.042 388.042 0 0 1 18.781-2.693" stroke="url(#z0iaut41eb)" stroke-dasharray="19 2"/>
        <path opacity=".36" d="M409.627 29.718a320.631 320.631 0 0 1 18.733-.662c6.246.001 12.48.204 18.695.614a260.625 260.625 0 0 1 18.592 2.103 259.728 259.728 0 0 1 18.364 3.704 257.818 257.818 0 0 1 17.969 5.318 255.808 255.808 0 0 1 17.296 6.84 244.422 244.422 0 0 1 16.297 8.18 221.557 221.557 0 0 1 14.915 9.285 192.196 192.196 0 0 1 13.168 10.11c4 3.472 7.74 7.033 11.205 10.675a155.004 155.004 0 0 1 9.28 10.98 188.334 188.334 0 0 1 7.833 11.149 576.628 576.628 0 0 1 7.313 11.224 414.805 414.805 0 0 0 8.117 11.285 223.563 223.563 0 0 0 10.369 11.418c4.188 3.819 8.754 7.698 13.698 11.643 5.38 3.912 11.115 7.89 17.16 11.945 6.339 4.013 12.845 8.103 19.415 12.257 6.58 4.116 12.984 8.298 19.093 12.536 5.745 4.187 10.934 8.417 15.446 12.703 3.836 4.217 6.831 8.482 8.927 12.783a33.512 33.512 0 0 1 1.447 12.881c-.882 4.306-2.337 8.683-4.185 13.126-1.863 4.449-3.731 8.988-5.375 13.645-1.054 4.699-1.503 9.524-1.205 14.482 1.305 5.032 3.506 10.199 6.626 15.517 4.06 5.374 8.83 10.872 14.125 16.483 5.674 5.64 11.374 11.357 16.801 17.133 4.979 5.756 9.135 11.532 12.22 17.311 1.967 5.714 2.574 11.408 1.769 17.078-1.999 5.608-5.216 11.196-9.464 16.776-4.824 5.554-10.074 11.127-15.418 16.747-4.896 5.647-9.172 11.307-12.574 17.004-2.225 5.759-3.322 11.562-3.279 17.417 1.23 5.924 3.347 11.879 6.122 17.857 3.326 6.011 6.742 12.019 9.943 17.993 2.873 5.969 4.978 11.877 6.115 17.722.166 5.81-.875 11.541-3.153 17.192-3.331 5.619-7.758 11.181-13.102 16.689-5.995 5.507-12.505 10.991-19.299 16.474-6.789 5.52-13.414 11.064-19.69 16.645-5.697 5.651-10.776 11.362-15.155 17.128-3.555 5.86-6.387 11.77-8.556 17.727-1.462 6.027-2.448 12.091-3.09 18.159-.285 6.113-.525 12.205-.844 18.263-.387 6.046-1.113 12.02-2.29 17.9a90.247 90.247 0 0 1-6.45 17.043c-3.275 5.428-7.183 10.677-11.684 15.719-4.972 4.902-10.46 9.564-16.375 13.97a231.254 231.254 0 0 1-19.528 11.856 282.069 282.069 0 0 1-20.806 9.434 269.479 269.479 0 0 1-20.479 6.807c-6.557 1.722-12.945 3.103-19.148 4.15-5.998.858-11.813 1.405-17.444 1.642-5.43.107-10.709-.055-15.855-.462a204.34 204.34 0 0 1-14.729-1.906 517.105 517.105 0 0 1-14.162-2.507 691.698 691.698 0 0 0-14.125-2.132 243.895 243.895 0 0 0-14.532-.818c-4.949.203-10.015.614-15.214 1.243a227.673 227.673 0 0 0-16.048 3.727 361.055 361.055 0 0 0-16.924 6.135 1121.806 1121.806 0 0 0-17.744 7.992 990.873 990.873 0 0 1-18.449 8.788 329.364 329.364 0 0 1-18.767 8.104c-6.249 2.33-12.485 4.31-18.705 5.895a125.56 125.56 0 0 1-18.465 2.583 106.634 106.634 0 0 1-18.086-1.423 112.768 112.768 0 0 1-17.564-5.593c-5.728-2.706-11.376-5.871-16.926-9.449-5.487-3.858-10.879-8.077-16.163-12.603a315.027 315.027 0 0 1-15.322-14.819 472.936 472.936 0 0 1-14.414-16.006 738.436 738.436 0 0 1-13.504-16.221 1487.57 1487.57 0 0 1-12.669-15.664c-4.098-4.973-8.09-9.834-12-14.571a1552.05 1552.05 0 0 0-11.564-13.222 873.07 873.07 0 0 0-11.405-11.853 939.063 939.063 0 0 0-11.452-10.674 2279.988 2279.988 0 0 0-11.593-9.808 1154.256 1154.256 0 0 1-11.621-9.332 407.792 407.792 0 0 1-11.387-9.228 234.12 234.12 0 0 1-10.752-9.482 168.601 168.601 0 0 1-9.8-10.009 148.631 148.631 0 0 1-8.665-10.75 157.34 157.34 0 0 1-7.617-11.644 192.47 192.47 0 0 1-6.776-12.604 239.299 239.299 0 0 1-6.162-13.6 268.676 268.676 0 0 1-5.6-14.53 261.818 261.818 0 0 1-4.875-15.393 241.92 241.92 0 0 1-3.874-16.133 248.898 248.898 0 0 1-2.707-16.767 312.292 312.292 0 0 1-1.606-17.3 429.86 429.86 0 0 1-.8-17.784c-.2-5.998-.29-12.065-.297-18.187a516.67 516.67 0 0 1 .181-18.555c.159-6.239.473-12.454.95-18.637.498-6.182 1.19-12.33 2.081-18.444a287.115 287.115 0 0 1 3.401-18.224 353.811 353.811 0 0 1 4.562-18.006 482.756 482.756 0 0 1 5.396-17.8 567.87 567.87 0 0 1 5.953-17.618 507.263 507.263 0 0 1 6.465-17.415 419.299 419.299 0 0 1 7.162-17.196 372.17 372.17 0 0 1 8.06-16.918 395.177 395.177 0 0 1 9.042-16.599 466.83 466.83 0 0 1 9.842-16.208 565.077 565.077 0 0 1 10.361-15.744 597.146 597.146 0 0 1 10.597-15.177 518.496 518.496 0 0 1 10.721-14.489 368.986 368.986 0 0 1 10.964-13.661 271.185 271.185 0 0 1 11.458-12.667 224.805 224.805 0 0 1 12.283-11.543c4.29-3.612 8.734-7.05 13.325-10.308a209.247 209.247 0 0 1 14.43-9.016 226.57 226.57 0 0 1 15.431-7.718 270.939 270.939 0 0 1 16.221-6.52 315.77 315.77 0 0 1 16.74-5.427 377.482 377.482 0 0 1 17.016-4.537 443.37 443.37 0 0 1 17.125-3.836 572.619 572.619 0 0 1 17.127-3.372 716.865 716.865 0 0 1 17.126-3.088 878.12 878.12 0 0 1 17.17-2.959 906.847 906.847 0 0 1 17.295-2.906 793.482 793.482 0 0 1 17.492-2.843 631.379 631.379 0 0 1 17.79-2.675 497.237 497.237 0 0 1 18.141-2.296 380.767 380.767 0 0 1 18.544-1.652" stroke="url(#uahwudehsc)" stroke-dasharray="13 16"/>
        <path opacity=".88" d="M431.156 45.177c6.077-.071 12.111.025 18.103.29 5.98.307 11.914.805 17.78 1.498 5.858.76 11.64 1.72 17.352 2.89a220.427 220.427 0 0 1 16.768 4.393 203.988 203.988 0 0 1 15.989 5.892 195.338 195.338 0 0 1 14.972 7.306 183.559 183.559 0 0 1 13.697 8.552 168.533 168.533 0 0 1 12.22 9.587 158.62 158.62 0 0 1 10.618 10.36 165.122 165.122 0 0 1 9.117 10.912 209.666 209.666 0 0 1 7.975 11.28c2.567 3.789 5.06 7.63 7.532 11.528a907.761 907.761 0 0 0 8.093 11.745 313.68 313.68 0 0 0 9.747 12 324.292 324.292 0 0 0 12.318 12.319 517.485 517.485 0 0 0 15.218 12.669c5.646 4.265 11.495 8.6 17.466 12.987 6.072 4.353 12.102 8.747 17.992 13.176 5.702 4.37 11.056 8.752 15.943 13.145 4.409 4.3 8.18 8.6 11.222 12.881 3.178 6.258 4.682 18.585 3.291 24.687-1.439 4.03-3.215 8.11-5.156 12.253-1.771 4.164-3.352 8.44-4.573 12.849-.554 4.488-.465 9.141.37 13.966 1.762 4.941 4.322 10.059 7.643 15.358 4.093 5.389 8.702 10.922 13.643 16.577 5.148 5.68 10.175 11.427 14.816 17.205 4.129 5.716 7.403 11.407 9.639 17.043 1.182 5.52 1.11 10.958-.237 16.306-2.408 5.231-5.914 10.391-10.317 15.514-4.893 5.064-10.171 10.144-15.53 15.273-4.959 5.178-9.376 10.411-13.013 15.729-2.598 5.441-4.18 10.994-4.745 16.66.54 5.797 1.911 11.684 3.928 17.647 2.61 6.033 5.383 12.086 8.068 18.12 2.506 6.029 4.417 11.987 5.543 17.853.338 5.787-.377 11.458-2.206 16.997-2.802 5.447-6.659 10.777-11.465 16.002-5.515 5.171-11.669 10.282-18.268 15.341-6.781 5.074-13.616 10.15-20.317 15.249-6.357 5.17-12.277 10.399-17.677 15.689-4.714 5.394-8.806 10.869-12.257 16.396a118.033 118.033 0 0 0-6.734 17.004c-1.274 5.748-2.313 11.485-3.227 17.177-.77 5.68-1.657 11.27-2.755 16.738-1.269 5.387-2.925 10.616-5.039 15.648a80.73 80.73 0 0 1-9.01 13.993c-3.946 4.245-8.4 8.211-13.326 11.897-5.276 3.472-10.938 6.65-16.915 9.505a190.451 190.451 0 0 1-19.151 6.973 219.363 219.363 0 0 1-19.962 4.434 226.115 226.115 0 0 1-19.594 2.014 218.18 218.18 0 0 1-18.53-.115 228.692 228.692 0 0 1-17.229-1.764 308.967 308.967 0 0 1-16.056-2.783 897.747 897.747 0 0 1-15.23-3.03 680.396 680.396 0 0 0-14.862-2.454 259.55 259.55 0 0 0-14.923-1.109c-5.025.083-10.133.351-15.324.82a246.272 246.272 0 0 0-15.963 3.036 394.836 394.836 0 0 0-16.685 5.145 1272.733 1272.733 0 0 0-17.412 6.704 926.544 926.544 0 0 1-18.003 7.318c-6.084 2.422-12.153 4.651-18.193 6.642-6.028 1.88-12.018 3.442-17.95 4.642-5.898.972-11.731 1.53-17.482 1.647a99.554 99.554 0 0 1-16.824-1.956 102.78 102.78 0 0 1-16.013-5.753c-5.163-2.691-10.193-5.81-15.109-9.328-4.84-3.772-9.548-7.897-14.129-12.33a257.329 257.329 0 0 1-13.161-14.544 384.485 384.485 0 0 1-12.236-15.878 587.748 587.748 0 0 1-11.444-16.348 1172.417 1172.417 0 0 1-10.84-16.111c-3.551-5.191-7.044-10.314-10.473-15.332a1348.48 1348.48 0 0 0-10.373-14.275c-3.509-4.472-7-8.844-10.488-13.11a842.238 842.238 0 0 0-10.735-12.042 1730.52 1730.52 0 0 0-10.935-11.171 1661.265 1661.265 0 0 1-10.939-10.571 448.502 448.502 0 0 1-10.584-10.265 255.85 255.85 0 0 1-9.851-10.232 180.434 180.434 0 0 1-8.801-10.461 154.666 154.666 0 0 1-7.636-10.902 152.317 152.317 0 0 1-6.534-11.516 181.008 181.008 0 0 1-5.671-12.255 224.527 224.527 0 0 1-5.012-13.064 252.02 252.02 0 0 1-4.44-13.89 248.027 248.027 0 0 1-3.764-14.652 238.748 238.748 0 0 1-2.9-15.339 247.584 247.584 0 0 1-1.875-15.932 289.46 289.46 0 0 1-.852-16.449 360.07 360.07 0 0 1 .023-16.909c.119-5.712.366-11.49.734-17.33.338-5.843.81-11.745 1.416-17.691a350.052 350.052 0 0 1 2.232-17.791 317.58 317.58 0 0 1 3.22-17.621 325.82 325.82 0 0 1 4.285-17.406 375.882 375.882 0 0 1 5.228-17.181 457.795 457.795 0 0 1 5.971-16.974 485.318 485.318 0 0 1 6.57-16.76 443.634 443.634 0 0 1 7.173-16.524 384.94 384.94 0 0 1 7.942-16.222 354.101 354.101 0 0 1 8.855-15.866 379.127 379.127 0 0 1 9.79-15.441 427.485 427.485 0 0 1 10.553-14.96 535.382 535.382 0 0 1 11.021-14.409 577.332 577.332 0 0 1 11.187-13.773 507.118 507.118 0 0 1 11.191-13.051 379.857 379.857 0 0 1 11.218-12.191 273.85 273.85 0 0 1 11.467-11.186 210.342 210.342 0 0 1 12.002-10.048 181.301 181.301 0 0 1 12.797-8.82 182.262 182.262 0 0 1 13.765-7.54 202.61 202.61 0 0 1 14.746-6.29 242.235 242.235 0 0 1 15.614-5.113 290.46 290.46 0 0 1 16.305-4.085c5.535-1.218 11.13-2.3 16.771-3.264a471.23 471.23 0 0 1 17.059-2.644 629.97 629.97 0 0 1 17.213-2.227 755.08 755.08 0 0 1 17.292-2.008 971.356 971.356 0 0 1 17.363-1.909 966.81 966.81 0 0 1 17.449-1.876 839.367 839.367 0 0 1 17.578-1.816 673.05 673.05 0 0 1 17.746-1.653 516.937 516.937 0 0 1 17.943-1.277c6.012-.35 12.062-.575 18.146-.645" stroke="url(#3780vapimd)" stroke-dasharray="21 26"/>
        <path opacity=".93" d="M448.184 61.384c5.836.237 11.594.618 17.262 1.158a251.886 251.886 0 0 1 16.672 2.258c5.438.984 10.765 2.161 15.962 3.519a186.307 186.307 0 0 1 15.095 4.887 169.53 169.53 0 0 1 14.069 6.259 155.376 155.376 0 0 1 12.882 7.555 150.662 150.662 0 0 1 11.576 8.71 148.649 148.649 0 0 1 10.246 9.699 161.367 161.367 0 0 1 9.045 10.479 214.425 214.425 0 0 1 8.145 11.107 416.388 416.388 0 0 1 7.789 11.605c2.688 3.942 5.4 7.957 8.182 12.045a548.302 548.302 0 0 0 9.409 12.477 428.543 428.543 0 0 0 11.361 12.93 574.42 574.42 0 0 0 13.65 13.369c5.05 4.515 10.27 9.098 15.632 13.737 5.481 4.607 10.994 9.25 16.456 13.922 5.383 4.604 10.553 9.216 15.413 13.819 4.544 4.5 8.625 8.964 12.144 13.388 4.19 6.401 8.311 18.715 8.248 24.639-1.291 5.742-6.095 17.187-8.823 23.037-1.475 3.974-2.641 8.086-3.366 12.36-.025 4.391.589 8.98 1.895 13.775 2.122 4.941 4.914 10.084 8.317 15.412 3.982 5.439 8.319 11.017 12.811 16.706 4.559 5.693 8.867 11.433 12.715 17.158 3.282 5.625 5.719 11.183 7.159 16.631.469 5.275-.207 10.422-2.043 15.438-2.76 4.844-6.483 9.592-11.004 14.266-4.932 4.601-10.2 9.21-15.553 13.872-4.987 4.736-9.502 9.547-13.341 14.487-2.914 5.104-4.939 10.374-6.052 15.8-.114 5.611.55 11.368 1.839 17.236 1.885 5.975 4.01 12 6.135 18.032 2.071 6.031 3.715 11.993 4.742 17.845.404 5.764-.088 11.368-1.545 16.815-2.334 5.299-5.648 10.438-9.882 15.414-4.966 4.875-10.645 9.623-16.877 14.28-6.558 4.615-13.344 9.188-20.198 13.758-6.701 4.604-13.173 9.248-19.298 13.94-5.619 4.797-10.734 9.653-15.309 14.59-3.941 5.035-7.345 10.128-10.264 15.262-2.37 5.202-4.376 10.407-6.118 15.576-1.432 5.179-2.789 10.273-4.155 15.252-1.332 4.909-2.859 9.639-4.639 14.172-1.969 4.401-4.303 8.556-7.044 12.44-3.043 3.702-6.525 7.106-10.429 10.193-4.223 2.878-8.844 5.435-13.807 7.658-5.234 2-10.745 3.678-16.478 5.029a170.603 170.603 0 0 1-18.097 2.498 205.99 205.99 0 0 1-18.665.236 241.905 241.905 0 0 1-18.415-1.628 301.885 301.885 0 0 1-17.7-2.957 461.736 461.736 0 0 1-16.842-3.645c-5.445-1.198-10.817-2.42-16.124-3.623a627.915 627.915 0 0 0-15.663-2.897 301.243 301.243 0 0 0-15.557-1.537 238.43 238.43 0 0 0-15.737.281 262.52 262.52 0 0 0-16.159 2.267 421.874 421.874 0 0 0-16.694 4.112 1294.583 1294.583 0 0 0-17.204 5.438 1021.6 1021.6 0 0 1-17.616 5.926c-5.914 1.94-11.791 3.712-17.598 5.269a180.904 180.904 0 0 1-17.135 3.481c-5.586.656-11.067.931-16.433.823a93.885 93.885 0 0 1-15.532-2.396 91.408 91.408 0 0 1-14.498-5.812 108.682 108.682 0 0 1-13.391-9.078c-4.249-3.652-8.347-7.634-12.303-11.908-3.899-4.462-7.655-9.171-11.282-14.091a330.754 330.754 0 0 1-10.42-15.53 554.986 554.986 0 0 1-9.771-16.231 1172.68 1172.68 0 0 1-9.379-16.299c-3.129-5.333-6.212-10.626-9.277-15.856a1347.88 1347.88 0 0 0-9.395-15.104 940.264 940.264 0 0 0-9.688-14.186 1041.5 1041.5 0 0 0-9.997-13.264 2409.5 2409.5 0 0 0-10.176-12.431c-3.42-3.959-6.779-7.877-10.068-11.76a476.139 476.139 0 0 1-9.6-11.283 270.546 270.546 0 0 1-8.752-11.018 188.228 188.228 0 0 1-7.652-10.974c-3.408-5.511-9.336-16.798-11.891-22.627-2.412-5.909-6.644-18.237-8.494-24.66a247.366 247.366 0 0 1-3.408-13.332 253.803 253.803 0 0 1-2.81-14.007 238.83 238.83 0 0 1-2.073-14.61 240.72 240.72 0 0 1-1.157-15.152c-.213-5.139-.27-10.34-.163-15.619.108-5.279.373-10.628.792-16.04.413-5.414.972-10.885 1.678-16.413.7-5.537 1.544-11.116 2.535-16.753a346.584 346.584 0 0 1 3.399-16.833 338.985 338.985 0 0 1 4.266-16.679 360.174 360.174 0 0 1 5.11-16.476 404.084 404.084 0 0 1 5.855-16.268 455.174 455.174 0 0 1 6.475-16.05 452.128 452.128 0 0 1 7.06-15.803 398.963 398.963 0 0 1 7.722-15.51 345.204 345.204 0 0 1 8.526-15.132 325.916 325.916 0 0 1 9.463-14.684 339.958 339.958 0 0 1 10.394-14.163 394.383 394.383 0 0 1 11.146-13.574 460.852 460.852 0 0 1 11.596-12.948 509.723 509.723 0 0 1 11.719-12.281 497.768 497.768 0 0 1 11.63-11.525 385.71 385.71 0 0 1 11.485-10.671 279.662 279.662 0 0 1 11.48-9.71 210.46 210.46 0 0 1 11.717-8.614 176.792 176.792 0 0 1 12.221-7.44 170.638 170.638 0 0 1 12.958-6.218c4.492-1.837 9.1-3.51 13.813-5.011a214.993 214.993 0 0 1 14.669-3.905 274.434 274.434 0 0 1 15.444-2.932 345.413 345.413 0 0 1 16.061-2.14 456.556 456.556 0 0 1 16.529-1.573 624.664 624.664 0 0 1 16.846-1.182c5.668-.392 11.355-.72 17.062-.992 5.722-.352 11.465-.655 17.215-.911 5.764-.338 11.536-.628 17.322-.878 5.793-.324 11.6-.6 17.412-.823 5.824-.289 11.66-.515 17.495-.657a519.428 519.428 0 0 1 17.54-.309c5.854-.033 11.701.062 17.548.285" stroke="url(#xoc1qntnue)" stroke-dasharray="13 18"/>
        <path opacity=".61" d="M460.833 77.762c5.547.5 10.969 1.139 16.281 1.913a228.24 228.24 0 0 1 15.511 2.886 190.24 190.24 0 0 1 14.609 4.021 162.423 162.423 0 0 1 13.601 5.246 145.994 145.994 0 0 1 12.481 6.488 137.266 137.266 0 0 1 11.324 7.692 139.898 139.898 0 0 1 10.174 8.805 151.225 151.225 0 0 1 9.173 9.778 202.873 202.873 0 0 1 8.433 10.652c2.76 3.7 5.456 7.506 8.129 11.408 2.766 3.931 5.552 7.967 8.378 12.096 2.989 4.154 6.071 8.398 9.261 12.738a735.475 735.475 0 0 0 10.686 13.363 803.82 803.82 0 0 0 12.408 13.928c4.52 4.72 9.188 9.521 13.974 14.381 4.908 4.828 9.858 9.704 14.787 14.606 4.912 4.844 9.694 9.688 14.27 14.521 4.372 4.73 8.407 9.418 12.027 14.044 3.246 4.492 5.968 8.895 8.127 13.211 2.215 6.193 2.967 17.912 1.688 23.499-2.045 5.418-7.147 16.311-9.489 21.973-1.413 5.922-.961 18.921 1.238 26.077 2.369 5.01 5.26 10.214 8.603 15.61 3.766 5.491 7.717 11.11 11.679 16.808 3.906 5.678 7.475 11.351 10.523 16.984 2.47 5.487 4.115 10.853 4.814 16.069-.179 5.006-1.4 9.838-3.654 14.493-3.046 4.472-6.944 8.81-11.549 13.055-4.929 4.159-10.162 8.331-15.475 12.552-4.986 4.299-9.569 8.71-13.572 13.26-3.19 4.753-5.606 9.699-7.217 14.845-.705 5.371-.698 10.912-.099 16.61 1.186 5.84 2.646 11.76 4.199 17.702 1.594 5.968 2.903 11.875 3.747 17.67.376 5.699.016 11.229-1.164 16.563-1.925 5.178-4.736 10.137-8.412 14.896-4.391 4.603-9.506 9.025-15.246 13.297-6.158 4.187-12.675 8.273-19.407 12.293-6.762 4.019-13.468 8.029-20.01 12.056-6.212 4.098-12.075 8.241-17.513 12.439-4.918 4.301-9.359 8.662-13.333 13.065a139.16 139.16 0 0 0-9.134 13.488c-2.269 4.528-4.309 8.996-6.208 13.359-2.563 6.422-7.985 18.206-11.217 23.416-3.751 4.687-13.221 12.217-18.961 15.016-4.18 1.546-8.649 2.762-13.385 3.646-4.928.699-10.065 1.08-15.369 1.167a179.011 179.011 0 0 1-16.612-1.017 247.703 247.703 0 0 1-17.125-2.721 361.244 361.244 0 0 1-17.105-3.859 666.97 666.97 0 0 1-16.802-4.355c-5.523-1.399-10.992-2.802-16.414-4.177a624.662 624.662 0 0 0-16.137-3.382 344.398 344.398 0 0 0-16.034-2.045 275.8 275.8 0 0 0-16.153-.371c-5.444.315-10.911.794-16.422 1.422a441.33 441.33 0 0 0-16.763 3.036 1166.913 1166.913 0 0 0-17.09 4.178 1279.566 1279.566 0 0 1-17.275 4.563c-5.771 1.487-11.452 2.827-17.049 3.972-5.568 1.06-11.03 1.87-16.365 2.403-5.3.357-10.458.38-15.467.07a90.562 90.562 0 0 1-14.389-2.764 83.971 83.971 0 0 1-13.195-5.815c-4.167-2.571-8.155-5.506-11.994-8.774a130.23 130.23 0 0 1-10.839-11.412c-3.419-4.279-6.701-8.81-9.85-13.546a306.733 306.733 0 0 1-9.072-15.063 514.996 514.996 0 0 1-8.553-15.975 1116.48 1116.48 0 0 1-8.335-16.314c-2.809-5.414-5.591-10.815-8.371-16.192-2.86-5.296-5.726-10.54-8.594-15.739a1668.697 1668.697 0 0 0-8.917-15.072 1724.573 1724.573 0 0 0-9.178-14.298 11030.81 11030.81 0 0 0-9.233-13.529c-3.07-4.326-6.077-8.599-8.988-12.818a460.289 460.289 0 0 1-8.369-12.202 270.206 270.206 0 0 1-7.455-11.752c-3.34-5.734-9.11-17.144-11.56-22.872-2.26-5.72-6.093-17.396-7.716-23.401-1.559-6.082-4.271-18.686-5.416-25.213a249.551 249.551 0 0 1-1.994-13.452 247.54 247.54 0 0 1-1.352-13.982c-.32-4.749-.493-9.563-.514-14.44a227.38 227.38 0 0 1 .473-14.833c.34-5.006.84-10.065 1.506-15.177a277.46 277.46 0 0 1 2.545-15.472 311.409 311.409 0 0 1 3.54-15.741 325.94 325.94 0 0 1 4.441-15.793 357.397 357.397 0 0 1 5.201-15.626 392.894 392.894 0 0 1 5.858-15.454 449.915 449.915 0 0 1 6.418-15.258 445.779 445.779 0 0 1 6.917-15.032 411.043 411.043 0 0 1 7.444-14.767 328.871 328.871 0 0 1 8.087-14.406c2.84-4.729 5.814-9.38 8.917-13.961a285.658 285.658 0 0 1 9.86-13.406 294.19 294.19 0 0 1 10.799-12.781 333.157 333.157 0 0 1 11.567-12.107 379.698 379.698 0 0 1 12.023-11.414 445.66 445.66 0 0 1 12.165-10.691 446.094 446.094 0 0 1 12.022-9.941 378.937 378.937 0 0 1 11.758-9.122 287.278 287.278 0 0 1 11.541-8.223 212.926 212.926 0 0 1 11.502-7.227c3.84-2.21 7.742-4.261 11.705-6.15a155.952 155.952 0 0 1 12.151-5.039 164.263 164.263 0 0 1 12.8-3.931 188.934 188.934 0 0 1 13.533-2.89c4.669-.8 9.434-1.453 14.292-1.985 4.91-.527 9.909-.941 14.972-1.24 5.13-.321 10.323-.55 15.57-.69 5.297-.181 10.644-.29 16.036-.325a786.363 786.363 0 0 1 16.385-.119c5.535-.055 11.081-.062 16.647-.025 5.593-.042 11.203-.025 16.813.022 5.641-.022 11.28.001 16.912.084 5.657.012 11.312.093 16.943.245a521.52 521.52 0 0 1 16.896.571c5.612.263 11.198.634 16.739 1.125" stroke="url(#5zng6sjspf)" stroke-dasharray="24 4"/>
        <path opacity=".18" d="M470.15 93.983c5.21.727 10.296 1.58 15.253 2.55a220.805 220.805 0 0 1 14.404 3.424 177.12 177.12 0 0 1 13.463 4.441 153.382 153.382 0 0 1 12.44 5.55 136.32 136.32 0 0 1 11.395 6.708c5.349 3.77 15.291 12.182 19.924 16.796a188.66 188.66 0 0 1 8.876 9.999 274.593 274.593 0 0 1 8.559 10.964 554.57 554.57 0 0 1 8.675 11.871c3.018 4.125 6.09 8.377 9.232 12.734 3.302 4.399 6.701 8.912 10.211 13.522 3.685 4.654 7.489 9.4 11.405 14.241a3262.33 3262.33 0 0 0 12.519 14.789 4118.458 4118.458 0 0 1 13.142 15.103 718.24 718.24 0 0 1 12.812 15.08c4.008 4.924 7.763 9.811 11.215 14.637 3.173 4.694 5.944 9.298 8.261 13.804 2.663 6.45 4.824 18.549 4.35 24.206-1.344 5.385-5.77 15.841-8.34 21.075-2.192 5.378-4.697 16.985-4.539 23.363.89 4.502 2.291 9.222 4.193 14.171 2.47 5.106 5.32 10.404 8.471 15.864 3.425 5.535 6.902 11.156 10.271 16.822 3.222 5.614 6.036 11.182 8.293 16.66 1.693 5.299 2.601 10.438 2.622 15.388-.763 4.704-2.455 9.204-5.06 13.499-3.286 4.096-7.314 8.038-11.949 11.875-4.907 3.754-10.083 7.496-15.326 11.304-4.962 3.885-9.579 7.891-13.706 12.06-3.42 4.383-6.163 8.979-8.21 13.801-1.24 5.067-1.84 10.342-1.884 15.787.527 5.624 1.349 11.353 2.322 17.128 1.091 5.819 2.017 11.596 2.611 17.279.272 5.587-.043 11.003-1.03 16.216-1.602 5.027-3.979 9.828-7.131 14.385-3.811 4.359-8.327 8.496-13.481 12.425-5.62 3.788-11.69 7.416-18.09 10.92-6.554 3.45-13.207 6.84-19.855 10.184-6.476 3.372-12.761 6.756-18.757 10.164-5.616 3.493-10.85 7.015-15.684 10.581a158.683 158.683 0 0 0-11.885 11.02 174.214 174.214 0 0 0-8.557 11.085c-3.361 5.399-9.416 15.385-12.452 19.815-3.193 3.992-10.731 10.325-15.189 12.601-4.981 1.681-16.436 3.227-22.841 3.121-4.482-.297-9.133-.862-13.92-1.672a228.774 228.774 0 0 1-14.977-3.285 395.639 395.639 0 0 1-15.572-4.331 864.545 864.545 0 0 1-15.843-4.748c-5.327-1.526-10.64-3.048-15.944-4.545a587.187 587.187 0 0 0-15.992-3.771 370.87 370.87 0 0 0-16.087-2.554 315.996 315.996 0 0 0-16.268-1.033c-5.482.04-10.986.23-16.505.548a444.15 444.15 0 0 0-16.75 1.947c-5.639.921-11.291 1.907-16.933 2.913a1264.583 1264.583 0 0 1-16.955 3.242c-5.631 1.047-11.146 1.967-16.549 2.725-5.379.68-10.622 1.143-15.721 1.362-5.056.076-9.955-.136-14.684-.648a89.688 89.688 0 0 1-13.486-3.13 81.351 81.351 0 0 1-12.233-5.823 91.235 91.235 0 0 1-10.991-8.503 119.323 119.323 0 0 1-9.847-10.94c-3.102-4.104-6.061-8.445-8.909-13.002a276.812 276.812 0 0 1-8.197-14.581 480.649 480.649 0 0 1-7.772-15.644 991.462 991.462 0 0 1-7.612-16.228 4088.963 4088.963 0 0 1-7.677-16.372 4173.781 4173.781 0 0 0-7.875-16.182 2965.46 2965.46 0 0 0-8.091-15.726 5821.716 5821.716 0 0 0-8.193-15.109 2299.363 2299.363 0 0 1-8.068-14.386 797.28 797.28 0 0 1-7.654-13.644 411.534 411.534 0 0 1-6.921-12.946 261.124 261.124 0 0 1-5.971-12.348c-2.608-5.966-6.99-17.708-8.782-23.536-1.643-5.775-4.355-17.448-5.466-23.382-1.087-5.989-2.928-18.318-3.675-24.656a281.68 281.68 0 0 1-1.282-13.018 243.056 243.056 0 0 1-.707-13.444c-.119-4.55-.097-9.151.081-13.805.195-4.658.55-9.353 1.068-14.1.56-4.734 1.291-9.51 2.195-14.32.942-4.805 2.05-9.646 3.333-14.521a262.425 262.425 0 0 1 4.428-14.681c1.65-4.927 3.43-9.822 5.341-14.685 1.897-4.867 3.901-9.702 6.008-14.514a445.31 445.31 0 0 1 6.525-14.343 500.217 500.217 0 0 1 6.915-14.162 453.355 453.355 0 0 1 7.287-13.948 380.194 380.194 0 0 1 7.714-13.655c2.661-4.48 5.43-8.905 8.315-13.247a261.634 261.634 0 0 1 9.109-12.726 247.906 247.906 0 0 1 10.032-12.089 259.611 259.611 0 0 1 10.976-11.366 279.794 279.794 0 0 1 11.766-10.604 323.19 323.19 0 0 1 12.273-9.828 356.752 356.752 0 0 1 12.449-9.072 392.69 392.69 0 0 1 12.33-8.321 365.306 365.306 0 0 1 12.012-7.552 300.286 300.286 0 0 1 11.654-6.733c5.698-3.07 17.021-8.476 22.709-10.793 5.686-2.13 17.336-5.605 23.332-6.956 6.122-1.172 18.838-2.812 25.434-3.31a289.3 289.3 0 0 1 13.7-.563c4.706-.104 9.482-.108 14.327-.03 4.906.035 9.865.148 14.881.333 5.066.122 10.183.307 15.337.549 5.198.177 10.434.406 15.689.678 5.297.208 10.615.453 15.938.755 5.355.225 10.723.508 16.076.842 5.387.274 10.754.612 16.109 1.016a500.48 500.48 0 0 1 16.014 1.33 408.077 408.077 0 0 1 15.791 1.857" stroke="url(#2rl8c9fo6g)" stroke-dasharray="8 12"/>
        <path opacity=".46" d="M477.632 110.106a265.98 265.98 0 0 1 14.261 3.109 212.364 212.364 0 0 1 13.456 3.911 167.958 167.958 0 0 1 12.571 4.842c5.973 2.795 17.2 9.233 22.464 12.872 5.125 3.906 14.815 12.593 19.438 17.364a228.448 228.448 0 0 1 9.069 10.351 359.618 359.618 0 0 1 9.015 11.42 711.583 711.583 0 0 1 9.301 12.441c3.229 4.345 6.511 8.805 9.857 13.392 3.458 4.628 6.984 9.377 10.577 14.222 3.702 4.877 7.45 9.842 11.25 14.882a1748.312 1748.312 0 0 1 11.576 15.29c3.838 5.11 7.6 10.232 11.244 15.35 3.542 5.049 6.888 10.049 9.993 15.009 2.904 4.837 5.496 9.592 7.728 14.246 2.704 6.697 5.499 19.231 5.553 25.064-.776 5.495-4.284 15.916-6.684 20.98-2.37 5.068-6.364 15.684-7.519 21.429-.182 4.036.037 8.275.682 12.743 1.192 4.645 2.798 9.506 4.797 14.575 2.424 5.21 5.099 10.584 7.939 16.09 2.988 5.537 5.909 11.128 8.638 16.72 2.51 5.496 4.574 10.907 6.077 16.176.957 5.067 1.176 9.935.594 14.579-1.274 4.382-3.371 8.539-6.27 12.474-3.474 3.723-7.587 7.282-12.224 10.728-4.859 3.356-9.946 6.708-15.108 10.111-4.908 3.49-9.526 7.102-13.736 10.879-3.591 3.998-6.615 8.229-9.036 12.681-1.707 4.715-2.837 9.658-3.472 14.792-.089 5.334.131 10.783.537 16.307.586 5.599 1.102 11.172 1.4 16.665.096 5.418-.248 10.667-1.117 15.722a53.962 53.962 0 0 1-6.053 13.85c-3.255 4.146-7.175 8.022-11.705 11.651-5.003 3.446-10.493 6.681-16.381 9.722-6.138 2.942-12.489 5.749-18.948 8.46-6.441 2.687-12.821 5.332-19.062 7.949-5.99 2.67-11.717 5.34-17.141 8.028-5.041 2.772-9.735 5.553-14.068 8.347-5.735 4.29-15.15 12.752-19.052 16.795-3.422 3.885-9.805 10.687-13.023 13.479-7.084 3.952-19.76 6.603-24.791 6.349-5.413-.688-17.252-3.328-23.597-5.179a378.393 378.393 0 0 1-13.448-4.321 1149.7 1149.7 0 0 1-14.188-4.753c-4.875-1.54-9.791-3.079-14.75-4.61a624.853 624.853 0 0 0-15.184-3.95 401.492 401.492 0 0 0-15.566-2.915 358.397 358.397 0 0 0-15.926-1.615 391.74 391.74 0 0 0-16.246-.27c-5.491.213-10.991.518-16.496.902-5.555.539-11.099 1.115-16.63 1.719-5.562.688-11.09 1.349-16.569 1.964a379.311 379.311 0 0 1-16.092 1.512c-5.207.31-10.274.433-15.179.353-4.869-.218-9.564-.673-14.09-1.393-4.468-.897-8.762-2.072-12.867-3.543a82.099 82.099 0 0 1-11.612-5.912 89.303 89.303 0 0 1-10.377-8.312 116.147 116.147 0 0 1-9.283-10.565 171.14 171.14 0 0 1-8.381-12.539 273.507 273.507 0 0 1-7.708-14.127 438.836 438.836 0 0 1-7.281-15.307 826.647 826.647 0 0 1-7.092-16.056 1911.6 1911.6 0 0 1-7.06-16.402 3954.529 3954.529 0 0 1-7.104-16.411 3825.09 3825.09 0 0 1-7.126-16.116 1993.06 1993.06 0 0 1-7.004-15.603 1026.738 1026.738 0 0 1-6.679-14.934 599.482 599.482 0 0 1-6.101-14.188 380.26 380.26 0 0 1-5.291-13.43c-2.318-6.427-6.189-18.872-7.746-24.924-1.395-5.928-3.574-17.655-4.405-23.495-.798-5.844-2.07-17.675-2.584-23.708-.53-6.096-1.321-18.584-1.545-24.972-.147-4.284-.189-8.617-.111-12.994.077-4.377.288-8.791.647-13.239.39-4.445.94-8.918 1.664-13.406a181.802 181.802 0 0 1 2.829-13.502 197.496 197.496 0 0 1 4.04-13.549c1.564-4.522 3.3-9.059 5.193-13.61a290.543 290.543 0 0 1 6.11-13.528 371.437 371.437 0 0 1 6.705-13.331 474.467 474.467 0 0 1 7.093-13.173 514.347 514.347 0 0 1 7.343-13.009 474.104 474.104 0 0 1 7.561-12.802 376.19 376.19 0 0 1 7.894-12.497 288.02 288.02 0 0 1 8.403-12.063 235.211 235.211 0 0 1 9.119-11.481 218.806 218.806 0 0 1 9.997-10.776 220.176 220.176 0 0 1 10.915-9.961 236.428 236.428 0 0 1 11.724-9.115 270.153 270.153 0 0 1 12.299-8.275 319.54 319.54 0 0 1 12.549-7.468 336.455 336.455 0 0 1 12.493-6.709 330.86 330.86 0 0 1 12.198-5.974c5.924-2.75 17.498-7.634 23.171-9.768 5.551-1.997 16.582-5.347 22.105-6.686 5.522-1.204 16.775-2.954 22.546-3.517 5.878-.445 18.03-.791 24.315-.72 4.263.05 8.603.192 13.007.422 4.46.186 8.988.445 13.568.78 4.638.283 9.33.618 14.066 1.026 4.792.34 9.621.734 14.486 1.181 4.912.384 9.846.817 14.802 1.297 4.99.429 9.996.904 14.995 1.44a563.407 563.407 0 0 1 15.068 1.634 453.261 453.261 0 0 1 14.993 1.964c4.979.719 9.906 1.538 14.786 2.46" stroke="url(#qz0kgszguh)" stroke-dasharray="21 15"/>
        <path opacity=".47" d="M484.794 126.636a241.973 241.973 0 0 1 13.361 3.623 196.69 196.69 0 0 1 12.678 4.385c6.083 2.507 17.652 8.272 23.134 11.56 5.366 3.53 15.583 11.457 20.481 15.858a210.375 210.375 0 0 1 9.544 9.652 279.926 279.926 0 0 1 9.356 10.791 432.3 432.3 0 0 1 9.37 11.914 647.452 647.452 0 0 1 9.572 12.945 903.772 903.772 0 0 1 9.867 13.872c3.372 4.777 6.752 9.647 10.133 14.607a967.939 967.939 0 0 1 10.138 15.098 609.176 609.176 0 0 1 9.699 15.265 349.64 349.64 0 0 1 8.599 15.02c2.521 4.878 4.783 9.676 6.761 14.398 1.753 4.584 3.173 9.054 4.245 13.406 1.02 6.242.861 17.864-.249 23.275-1.644 5.16-6.025 15.144-8.425 20.114-2.117 5.085-5.108 15.992-5.661 21.955.189 4.21.736 8.626 1.645 13.256 1.347 4.806 3.015 9.808 4.956 14.986 2.242 5.294 4.626 10.706 7.049 16.201 2.469 5.498 4.785 10.995 6.844 16.445 1.795 5.326 3.135 10.519 3.924 15.537.276 4.794-.119 9.352-1.239 13.667-1.723 4.052-4.167 7.854-7.292 11.424-3.611 3.358-7.769 6.551-12.378 9.621-4.778 2.987-9.76 5.959-14.81 8.974-4.838 3.108-9.426 6.333-13.674 9.714-3.722 3.612-6.961 7.442-9.686 11.496-2.099 4.335-3.705 8.886-4.849 13.646-.641 4.972-.984 10.082-1.105 15.281.095 5.301.189 10.585.173 15.822-.122 5.182-.555 10.22-1.391 15.058-1.191 4.682-2.91 9.119-5.192 13.277-2.765 3.939-6.107 7.594-10.008 10.964-4.354 3.156-9.199 6.057-14.452 8.715-5.561 2.507-11.407 4.825-17.451 6.983-6.138 2.093-12.332 4.072-18.494 5.975a2240.715 2240.715 0 0 0-17.659 5.614 496.203 496.203 0 0 0-15.486 5.675c-6.656 2.942-17.965 8.811-22.716 11.664-7.748 5.29-17.825 11.64-21.051 13-6.898 1.371-18.741.779-23.301-.291-4.875-1.338-15.496-4.873-21.209-6.959a1199.084 1199.084 0 0 1-12.192-4.376 1694.045 1694.045 0 0 0-13.088-4.343 623.456 623.456 0 0 0-13.865-3.868 446.302 446.302 0 0 0-14.528-3.042 403.365 403.365 0 0 0-15.11-2.026c-5.171-.4-10.371-.715-15.597-.952a729.577 729.577 0 0 0-15.935-.008c-5.375.178-10.748.39-16.1.611-5.392.293-10.749.561-16.065.773-5.322.226-10.519.352-15.589.355a203.464 203.464 0 0 1-14.701-.651c-4.711-.501-9.256-1.214-13.629-2.153-6.402-1.76-18.242-6.812-23.692-10.135a93.634 93.634 0 0 1-10.059-8.249 118.229 118.229 0 0 1-8.997-10.308 167.524 167.524 0 0 1-8.103-12.167 246.26 246.26 0 0 1-7.412-13.729 370.048 370.048 0 0 1-6.919-14.931 604.286 604.286 0 0 1-6.598-15.776 908.695 908.695 0 0 1-6.379-16.241 1198.795 1198.795 0 0 1-6.208-16.372 1218.747 1218.747 0 0 1-5.971-16.186 985.998 985.998 0 0 1-5.618-15.746 655.934 655.934 0 0 1-5.09-15.126 444.761 444.761 0 0 1-4.392-14.391 319.725 319.725 0 0 1-3.574-13.617c-1.483-6.526-3.769-19.117-4.595-25.226-.712-5.977-1.689-17.761-1.997-23.619-.31-5.835-.734-17.614-.868-23.592-.179-6.021-.325-18.29-.244-24.515.129-6.279.938-18.961 1.689-25.341.95-6.368 3.774-19.091 5.665-25.431a179.633 179.633 0 0 1 4.682-12.596c1.786-4.179 3.74-8.35 5.854-12.516a269.668 269.668 0 0 1 6.738-12.358 390.954 390.954 0 0 1 7.276-12.132 518.928 518.928 0 0 1 7.551-11.963 619.732 619.732 0 0 1 7.68-11.809 516.861 516.861 0 0 1 7.78-11.61 365.176 365.176 0 0 1 7.979-11.32 273.416 273.416 0 0 1 8.371-10.872 214.689 214.689 0 0 1 8.981-10.256 189.865 189.865 0 0 1 9.783-9.499 180.074 180.074 0 0 1 10.641-8.628 191.905 191.905 0 0 1 11.451-7.705 219.52 219.52 0 0 1 12.066-6.801c4.105-2.1 8.249-4.086 12.419-5.946a289.409 289.409 0 0 1 12.476-5.165c6.146-2.334 18.234-6.463 24.137-8.259 5.751-1.692 16.979-4.56 22.462-5.733 5.385-1.078 16.065-2.711 21.397-3.259 5.337-.464 16.169-.899 21.702-.878 5.629.079 17.208.637 23.171 1.09 6.101.472 18.655 1.692 25.107 2.423 4.357.452 8.771.961 13.218 1.526a587.62 587.62 0 0 1 13.578 1.691c4.591.571 9.202 1.19 13.822 1.879 4.652.638 9.303 1.349 13.945 2.12 4.667.75 9.318 1.575 13.94 2.485 4.638.892 9.241 1.882 13.796 2.983" stroke="url(#6bjlpiivki)" stroke-dasharray="18 15"/>
        <path opacity=".21" d="M492.605 144.154a232.65 232.65 0 0 1 12.569 4.112c6.102 2.315 17.838 7.602 23.471 10.607a165.743 165.743 0 0 1 10.868 6.729c7.039 4.968 13.776 10.544 20.253 16.715 6.49 6.472 12.793 13.56 18.969 21.228 6.253 7.958 12.426 16.453 18.515 25.442a585.19 585.19 0 0 1 17.977 28.491c5.653 9.763 10.858 19.616 15.425 29.405 4.059 9.471 7.178 18.683 9.177 27.493 1.201 8.304 1.177 16.135-.066 23.481-1.805 6.935-4.463 13.57-7.664 20.071-2.841 6.551-5.457 13.367-7.451 20.657-.603 7.881-.098 16.517 1.58 25.926 3.049 10.021 6.743 20.588 10.569 31.423 3.669 10.713 6.165 21.065 6.84 30.717-.814 6.584-6.331 18.078-10.998 23.014-3.698 3.001-7.865 5.839-12.403 8.547-4.684 2.634-9.531 5.243-14.455 7.888-4.728 2.737-9.26 5.582-13.502 8.566-3.8 3.217-7.2 6.637-10.161 10.28a67.107 67.107 0 0 0-5.997 12.372c-1.134 4.563-1.965 9.273-2.576 14.077-.567 9.933-1.283 19.732-2.81 29.001-2.516 8.742-6.817 16.434-13.031 22.961-7.821 5.618-17.3 10.151-28.009 13.74-11.367 3.105-23.037 5.67-34.517 7.863-10.88 2.28-20.931 4.446-29.976 6.512-7.921 2.344-14.836 4.539-20.871 6.469-5.201 2.053-9.895 3.635-14.323 4.632-4.151.896-8.414 1.073-12.915.518-4.674-.71-9.801-2.11-15.398-4.118-5.987-1.997-12.5-4.411-19.488-7.126a924.515 924.515 0 0 0-23.62-7.368 502.124 502.124 0 0 0-27.14-5.18 614.502 614.502 0 0 0-14.601-1.436c-4.997-.289-10.022-.54-15.077-.766-5.105-.108-10.228-.217-15.347-.333a759.497 759.497 0 0 1-15.38-.3 352.89 352.89 0 0 1-14.987-.712 203.427 203.427 0 0 1-14.183-1.616 137.39 137.39 0 0 1-13.205-2.928 104.637 104.637 0 0 1-12.108-4.556c-7.564-3.936-14.487-8.836-20.805-14.659-6.087-6.476-11.633-13.832-16.699-21.983-4.923-8.663-9.45-17.971-13.627-27.804-4.131-10.103-7.976-20.537-11.546-31.183a671.356 671.356 0 0 1-9.767-31.912c-2.873-10.367-5.384-20.542-7.473-30.444-1.961-9.56-3.473-18.817-4.509-27.757a267.175 267.175 0 0 1-1.602-25.108c-.192-7.95-.111-15.794.207-23.594.077-7.771.299-15.594.684-23.493.102-7.951.412-16.014 1-24.146.48-8.152 1.402-16.331 2.848-24.486 1.242-6.074 4.638-18.077 6.813-23.995 2.449-5.846 8.283-17.388 11.646-23.087a258.056 258.056 0 0 1 7.245-11.185 380.89 380.89 0 0 1 7.717-10.911 546.901 546.901 0 0 1 7.903-10.734 666.487 666.487 0 0 1 7.938-10.589c5.159-7.055 10.457-13.923 15.917-20.548 5.356-6.62 11-12.901 16.976-18.779a158.718 158.718 0 0 1 19.596-15.698 169.138 169.138 0 0 1 22.589-11.899 220.356 220.356 0 0 1 24.274-8.314 268.44 268.44 0 0 1 24.014-5.466c7.662-1.455 15.163-2.548 22.509-3.268a212.435 212.435 0 0 1 21.097-1.398 210.42 210.42 0 0 1 20.711.314c6.991.289 14.15.889 21.482 1.794 7.456.709 15.117 1.69 22.96 2.922a477.68 477.68 0 0 1 24.521 3.774c6.328 1.048 19.139 3.416 25.589 4.753a331.95 331.95 0 0 1 12.938 2.926 273.299 273.299 0 0 1 12.89 3.463" stroke="url(#97jnztdpcj)" stroke-dasharray="25 8"/>
        <path opacity=".96" d="M501.232 163.15a204.291 204.291 0 0 1 23.29 9.916 175.63 175.63 0 0 1 21.467 13.354c6.815 5.22 13.37 11.032 19.689 17.424 6.272 6.649 12.346 13.874 18.214 21.627 5.84 7.979 11.464 16.428 16.836 25.265a361.287 361.287 0 0 1 14.637 27.455c4.138 9.214 7.633 18.39 10.346 27.393 2.154 8.659 3.349 16.991 3.509 24.916-.441 7.506-1.863 14.602-4.158 21.343-2.491 6.514-5.44 12.907-8.545 19.348-2.485 6.681-4.536 13.773-5.87 21.413-.067 8.285.805 17.285 2.548 26.957 2.71 10.16 5.715 20.674 8.525 31.256 2.43 10.315 3.612 20.101 3.047 29.072-2.19 7.996-6.557 14.935-13.041 20.852-7.745 5.172-16.747 9.833-26.35 14.367-8.962 4.901-17 10.325-23.695 16.482-4.894 7.219-8.375 15.202-10.756 23.744-1.377 9.118-2.667 18.176-4.414 26.802-2.35 8.239-6.055 15.496-11.291 21.615-6.574 5.243-14.664 9.305-23.978 12.297-10.129 2.36-20.819 3.977-31.645 5.03a875.698 875.698 0 0 1-30.17 2.201c-8.585.773-16.279 1.427-23.113 1.927-6.003.735-11.365 1.205-16.228 1.31-4.439.206-8.705-.058-12.967-.847-4.254-.758-8.746-2.027-13.563-3.788-5.083-1.649-10.616-3.665-16.599-5.962-6.394-2.009-13.265-4.15-20.598-6.328a670.65 670.65 0 0 0-24.455-4.986c-8.894-1.094-18.068-2.109-27.439-3.083-9.597-.632-19.271-1.369-28.921-2.325-9.678-.921-18.967-2.272-27.806-4.154-8.676-2.176-16.812-5.066-24.38-8.721-7.316-4.156-14.038-9.166-20.19-15.002-5.885-6.38-11.238-13.564-16.079-21.46-4.641-8.341-8.841-17.289-12.614-26.713-3.63-9.669-6.88-19.661-9.754-29.838a440.019 440.019 0 0 1-7.075-30.572c-1.826-9.972-3.232-19.759-4.211-29.287-.835-9.254-1.258-18.224-1.258-26.912.037-8.424.404-16.63 1.071-24.625a526.398 526.398 0 0 1 2.122-23.406 925.487 925.487 0 0 1 2.065-23.352c.53-7.894 1.244-15.819 2.213-23.768.888-7.943 2.209-15.842 4.028-23.631a140.367 140.367 0 0 1 7.912-22.553c3.551-7.2 7.752-14.227 12.582-21.086 4.914-6.809 10.173-13.382 15.669-19.738a646.073 646.073 0 0 1 16.263-18.89c5.242-6.263 10.55-12.341 15.945-18.186 5.264-5.87 10.746-11.405 16.476-16.535a139.916 139.916 0 0 1 18.539-13.514c6.751-3.773 13.868-6.986 21.289-9.641 7.566-2.475 15.333-4.435 23.222-5.909a238.38 238.38 0 0 1 23.493-2.975c7.616-.639 15.1-.949 22.433-.942a257.13 257.13 0 0 1 21.042.502c6.776.279 13.517.823 20.261 1.645a291.673 291.673 0 0 1 20.452 2.646 361.585 361.585 0 0 1 21.43 3.504 404.766 404.766 0 0 1 22.683 4.348 357.23 357.23 0 0 1 23.715 5.453 272.62 272.62 0 0 1 24.144 7.261" stroke="url(#aw591bb4vk)" stroke-dasharray="17 1"/>
        <path opacity=".67" d="M509.993 183.602a199.956 199.956 0 0 1 21.981 10.774 179.936 179.936 0 0 1 20.337 14.029c6.44 5.386 12.605 11.306 18.502 17.748 5.797 6.644 11.313 13.791 16.52 21.36a268.515 268.515 0 0 1 14.093 24.19c4.066 8.378 7.62 16.89 10.565 25.427 2.562 8.371 4.389 16.62 5.398 24.629.522 7.703.185 15.092-1.008 22.136-1.567 6.759-3.818 13.25-6.605 19.536-2.702 6.28-5.539 12.614-8.281 19.154-1.998 6.947-3.475 14.376-4.274 22.39.275 8.65 1.255 17.913 2.808 27.702 2.166 10.134 4.32 20.422 6.055 30.583 1.203 9.761 1.162 18.873-.487 27.084-3.059 7.244-7.981 13.434-14.676 18.623-7.692 4.516-16.427 8.524-25.661 12.379-8.696 4.205-16.64 8.857-23.463 14.158-5.318 6.312-9.406 13.337-12.486 20.908-2.092 8.202-3.927 16.424-5.944 24.326-2.309 7.654-5.566 14.443-9.977 20.176-5.475 4.935-12.239 8.679-20.124 11.28-8.737 1.9-18.171 2.895-27.962 3.16a378.612 378.612 0 0 1-28.906-1.085c-8.786-.555-16.884-1.252-24.263-2.071-6.694-.542-12.725-1.216-18.187-2.085-4.983-.63-9.641-1.519-14.104-2.726-4.322-1.015-8.696-2.37-13.221-4.049-4.668-1.479-9.661-3.237-15.019-5.229-5.67-1.698-11.794-3.537-18.336-5.476a1379.098 1379.098 0 0 0-22.034-4.711c-8.08-1.196-16.482-2.419-25.125-3.712-8.852-1.02-17.832-2.225-26.855-3.7-9.045-1.445-17.781-3.311-26.121-5.677-8.197-2.592-15.919-5.829-23.126-9.744a109.3 109.3 0 0 1-19.188-15.173c-5.549-6.236-10.559-13.172-15.037-20.73-4.217-7.923-7.933-16.382-11.166-25.254a280.577 280.577 0 0 1-7.636-27.959 318.702 318.702 0 0 1-4.31-28.586c-.818-9.343-1.203-18.542-1.155-27.515.155-8.757.684-17.294 1.562-25.587a381.07 381.07 0 0 1 3.274-23.864 840.725 840.725 0 0 1 3.683-23.052c1.032-7.69 2.129-15.398 3.299-23.121.936-7.789 2.04-15.573 3.392-23.3 1.307-7.713 3.015-15.301 5.21-22.717 2.375-7.269 5.341-14.306 8.957-21.081 3.847-6.61 8.31-12.973 13.347-19.105 5.117-6.079 10.543-11.88 16.144-17.448a668.546 668.546 0 0 1 16.501-16.501c5.279-5.487 10.566-10.798 15.871-15.881 5.152-5.15 10.439-9.976 15.9-14.418a125.383 125.383 0 0 1 17.365-11.584c6.266-3.161 12.855-5.756 19.734-7.791 7.056-1.844 14.339-3.153 21.768-3.968a211.095 211.095 0 0 1 22.564-.909 265.7 265.7 0 0 1 22.076 1.124c7.12.548 14.127 1.334 21.007 2.35a317.94 317.94 0 0 1 20.139 3.125 339.742 339.742 0 0 1 19.961 3.716 378.739 378.739 0 0 1 20.479 4.311 370.493 370.493 0 0 1 21.367 5.065 318.693 318.693 0 0 1 22.215 6.24 251.128 251.128 0 0 1 22.657 8.122" stroke="url(#bydt68w4pl)" stroke-dasharray="21 11"/>
        <path opacity=".25" d="M517.694 204.968a194.401 194.401 0 0 1 20.545 11.46 176.597 176.597 0 0 1 18.811 14.36 179.396 179.396 0 0 1 16.668 17.503 193.417 193.417 0 0 1 14.068 20.346 190.662 190.662 0 0 1 10.768 22.26c2.787 7.565 4.972 15.172 6.485 22.701 1.146 7.384 1.576 14.6 1.254 21.586a94.48 94.48 0 0 1-4.052 19.591c-2.14 6.184-4.701 12.256-7.542 18.303-2.551 6.219-5.039 12.654-7.274 19.421-1.506 7.252-2.507 15.024-2.952 23.348.385 8.885 1.237 18.253 2.384 27.975 1.455 9.908 2.68 19.773 3.336 29.34.05 9.08-1.087 17.415-3.662 24.794-3.765 6.463-9.091 11.897-15.878 16.367-7.569 3.882-15.979 7.268-24.804 10.471-8.376 3.552-16.128 7.454-22.975 11.917-5.592 5.401-10.133 11.455-13.76 18.022-2.709 7.232-5.042 14.551-7.342 21.652-2.361 7.008-5.326 13.28-9.097 18.626-4.548 4.665-10.122 8.199-16.671 10.596-7.332 1.676-15.383 2.359-23.909 2.197-8.835-.545-17.745-1.66-26.49-3.203a362.694 362.694 0 0 1-24.177-5.16c-7.085-1.645-13.612-3.374-19.608-5.198-5.57-1.521-10.756-3.154-15.651-4.924a204.207 204.207 0 0 1-13.939-4.996c-4.68-1.56-9.538-3.292-14.632-5.183a5795.35 5795.35 0 0 1-17.041-5.103c-6.345-1.461-13.076-3.007-20.154-4.638-7.378-1.296-15.06-2.71-22.985-4.26-8.114-1.338-16.373-2.906-24.697-4.795-8.341-1.854-16.418-4.119-24.166-6.844-7.596-2.901-14.766-6.379-21.464-10.444a109.595 109.595 0 0 1-17.714-15.018c-5.067-5.986-9.575-12.55-13.539-19.648-3.646-7.382-6.762-15.205-9.345-23.374-2.302-8.33-4.092-16.892-5.377-25.577a243.433 243.433 0 0 1-1.724-26.112c.068-8.58.558-17.038 1.451-25.323a299.991 299.991 0 0 1 3.777-23.969 510.397 510.397 0 0 1 4.935-22.899 1504.897 1504.897 0 0 1 4.897-22.553c1.407-7.579 2.85-15.168 4.37-22.736 1.319-7.636 2.801-15.214 4.521-22.687 1.716-7.43 3.821-14.669 6.376-21.662a123.917 123.917 0 0 1 9.905-19.558c4.107-6.026 8.77-11.746 13.942-17.174 5.26-5.371 10.771-10.431 16.425-15.234a590.257 590.257 0 0 1 16.574-14.206 586.74 586.74 0 0 1 15.705-13.664c5.025-4.454 10.112-8.619 15.291-12.434 5.185-3.763 10.571-7.085 16.176-9.905a101.131 101.131 0 0 1 18.07-6.333c6.474-1.369 13.171-2.205 20.033-2.542 6.998-.206 14.087.012 21.217.634 7.151.63 14.277 1.567 21.331 2.796a327.252 327.252 0 0 1 20.755 4.017 381.852 381.852 0 0 1 20.077 4.627 418.385 418.385 0 0 1 19.754 4.981 421.047 421.047 0 0 1 19.935 5.362 372.398 372.398 0 0 1 20.465 5.995 303.922 303.922 0 0 1 21.023 7.128 240.325 240.325 0 0 1 21.291 8.975" stroke="url(#yotp89jwqm)" stroke-dasharray="22 16"/>
        <path opacity=".16" d="M522.96 226.187a191.45 191.45 0 0 1 18.921 11.889 167.203 167.203 0 0 1 16.933 14.255 158.362 158.362 0 0 1 14.382 16.68 151.232 151.232 0 0 1 11.259 18.687 133.926 133.926 0 0 1 7.458 19.794c1.636 6.639 2.65 13.237 3.015 19.745a92.5 92.5 0 0 1-1.652 18.74c-1.376 5.995-3.26 11.861-5.576 17.624-2.274 5.828-4.761 11.7-7.329 17.7-2.187 6.314-4.217 12.948-5.95 19.972-1.094 7.539-1.795 15.56-2.082 24.051.29 8.943.807 18.217 1.384 27.65.665 9.469.943 18.735.571 27.556-.988 8.266-3.062 15.735-6.378 22.245-4.311 5.651-9.902 10.341-16.667 14.119-7.362 3.269-15.403 6.069-23.782 8.668-7.999 2.912-15.499 6.113-22.253 9.763-5.732 4.521-10.575 9.612-14.608 15.168-3.2 6.246-5.976 12.617-8.55 18.866-2.48 6.3-5.277 12.005-8.592 16.938-3.828 4.406-8.421 7.789-13.777 10.11-6.03 1.639-12.723 2.262-19.923 1.983-7.608-.744-15.444-2.163-23.32-4.135a284.809 284.809 0 0 1-22.942-7.108 342.777 342.777 0 0 1-20.131-7.665 345.199 345.199 0 0 1-16.989-7.115 436.827 436.827 0 0 1-15.106-6.424c-4.937-1.873-9.94-3.819-15.049-5.847-5.295-1.706-10.803-3.485-16.562-5.35a3078.512 3078.512 0 0 1-18.886-4.938 745.557 745.557 0 0 1-21.165-4.888c-7.429-1.621-14.984-3.497-22.575-5.698-7.616-2.172-14.981-4.719-22.03-7.683-6.915-3.085-13.419-6.664-19.47-10.739a104.68 104.68 0 0 1-15.861-14.488c-4.456-5.6-8.353-11.683-11.678-18.183-3.021-6.719-5.475-13.79-7.369-21.129a163.182 163.182 0 0 1-3.239-22.876c-.324-7.786-.163-15.6.451-23.371.755-7.74 1.903-15.4 3.399-22.95a339.048 339.048 0 0 1 5.319-22.234 736.376 736.376 0 0 1 6.026-21.82c1.896-7.307 3.82-14.61 5.775-21.906a1329.814 1329.814 0 0 1 5.279-22.152c1.671-7.41 3.519-14.718 5.598-21.87 2.106-7.069 4.574-13.908 7.459-20.441 3.075-6.353 6.649-12.348 10.74-17.972 4.314-5.424 9.115-10.512 14.362-15.269 5.336-4.691 10.868-9.048 16.507-13.128a553.05 553.05 0 0 1 16.49-12.025 635.262 635.262 0 0 1 15.474-11.547c4.898-3.809 9.792-7.348 14.714-10.587 4.886-3.231 9.893-6.064 15.049-8.438a89.415 89.415 0 0 1 16.412-5.229c5.86-1.049 11.936-1.58 18.173-1.611 6.403.11 12.936.664 19.549 1.62 6.706.995 13.439 2.328 20.158 3.952a322.717 322.717 0 0 1 20.125 5.326 428.277 428.277 0 0 1 19.786 5.988 500.722 500.722 0 0 1 19.534 6.284 465.727 465.727 0 0 1 19.528 6.553 386.726 386.726 0 0 1 19.756 7.07 305.83 305.83 0 0 1 19.973 8.069 241.008 241.008 0 0 1 19.92 9.741" stroke="url(#0vt30v8i3n)" stroke-dasharray="17 16"/>
        <path opacity=".82" d="M524.825 246.035a185.798 185.798 0 0 1 17.15 12.026c5.318 4.322 10.278 8.911 14.83 13.751a130.558 130.558 0 0 1 11.976 15.42c3.36 5.414 6.222 10.99 8.558 16.673 2.12 5.703 3.681 11.46 4.677 17.212a84.906 84.906 0 0 1 .564 17.033c-.571 5.574-1.662 11.074-3.224 16.495-1.624 5.453-3.592 10.908-5.824 16.389-2.085 5.685-4.245 11.545-6.39 17.636a258.07 258.07 0 0 0-4.666 20.561c-.833 7.701-1.404 15.818-1.741 24.284.007 8.776.055 17.714-.014 26.645-.155 8.826-.777 17.319-2.065 25.267-1.875 7.363-4.708 13.912-8.595 19.534-4.685 4.846-10.397 8.79-17.045 11.909-7.085 2.69-14.707 4.937-22.593 6.973-7.594 2.326-14.762 4.865-21.33 7.761-5.744 3.675-10.755 7.837-15.054 12.422-3.578 5.256-6.703 10.677-9.544 16.049-2.637 5.538-5.384 10.639-8.391 15.118-3.316 4.122-7.157 7.367-11.536 9.664-4.913 1.711-10.385 2.462-16.319 2.305-6.368-.644-13.03-2.036-19.858-4.043-7.002-2.235-13.982-4.893-20.83-7.86a347.936 347.936 0 0 1-19.652-9.171 503.725 503.725 0 0 1-17.656-8.902 1010.466 1010.466 0 0 1-16.121-7.989 9838.285 9838.285 0 0 1-15.741-6.994 3726.032 3726.032 0 0 0-16.554-6.169c-5.852-1.816-11.88-3.686-18.085-5.663a634.425 634.425 0 0 1-19.664-5.657c-6.826-1.912-13.716-4.06-20.59-6.504-6.9-2.416-13.533-5.155-19.839-8.223-6.192-3.175-11.981-6.739-17.318-10.697a96.577 96.577 0 0 1-13.803-13.615 92.323 92.323 0 0 1-9.72-16.453c-2.39-5.982-4.215-12.24-5.484-18.7-1.008-6.57-1.485-13.294-1.457-20.091.228-6.854.92-13.75 2.024-20.633a227.497 227.497 0 0 1 4.632-20.634 388.716 388.716 0 0 1 6.166-20.539 968.118 968.118 0 0 1 6.612-20.691 2829.85 2829.85 0 0 1 6.334-21.102 973.863 973.863 0 0 1 6.039-21.344c1.997-7.091 4.167-14.039 6.573-20.79 2.455-6.653 5.26-13.022 8.436-19.045a111.344 111.344 0 0 1 11.425-16.305c4.457-4.837 9.335-9.301 14.605-13.41 5.336-4.037 10.831-7.734 16.401-11.142a470.788 470.788 0 0 1 16.262-9.972 691.155 691.155 0 0 1 15.182-9.559c4.777-3.186 9.495-6.149 14.182-8.852 4.623-2.745 9.295-5.142 14.054-7.146a82.284 82.284 0 0 1 14.893-4.397c5.269-.853 10.712-1.209 16.313-1.092 5.768.255 11.682.951 17.694 2.061 6.151 1.182 12.378 2.705 18.632 4.533a304.821 304.821 0 0 1 19.046 6.15 423.916 423.916 0 0 1 19.1 6.999 526.462 526.462 0 0 1 19.02 7.406 513.778 513.778 0 0 1 18.982 7.682 427.976 427.976 0 0 1 18.976 8.119 322.837 322.837 0 0 1 18.882 8.961 241.98 241.98 0 0 1 18.478 10.341" stroke="url(#625juqtr3o)" stroke-dasharray="10 21"/>
        <path opacity=".29" d="M522.966 263.486c5.445 3.798 10.547 7.762 15.277 11.876 4.66 4.169 8.918 8.497 12.748 12.968 3.71 4.539 6.972 9.209 9.743 13.988 2.622 4.825 4.744 9.726 6.347 14.671a75.329 75.329 0 0 1 2.721 14.945 77.308 77.308 0 0 1-.771 14.934c-.82 5-2.047 10.012-3.608 15.037-1.534 5.173-3.294 10.444-5.208 15.857-1.718 5.7-3.462 11.647-5.158 17.876a379.069 379.069 0 0 0-3.679 20.921c-.738 7.701-1.355 15.697-1.901 23.903-.389 8.374-.888 16.75-1.63 24.974-.925 8.017-2.351 15.602-4.408 22.572-2.591 6.406-5.986 12.01-10.257 16.737-4.894 4.053-10.604 7.293-17.029 9.783-6.751 2.15-13.914 3.889-21.281 5.409-7.128 1.787-13.912 3.714-20.211 5.924-5.659 2.888-10.709 6.181-15.156 9.839-3.837 4.304-7.231 8.779-10.299 13.277-2.802 4.75-5.567 9.201-8.424 13.189-2.988 3.783-6.286 6.857-9.945 9.135-4.033 1.821-8.487 2.771-13.327 2.887-5.218-.347-10.746-1.444-16.497-3.2-6.004-2.04-12.1-4.574-18.208-7.505a315.53 315.53 0 0 1-18.297-9.61 572.186 572.186 0 0 1-17.455-9.942 1537.224 1537.224 0 0 1-16.566-9.28 3715.295 3715.295 0 0 0-16.214-8.252 2144.075 2144.075 0 0 0-16.594-7.291 4488.292 4488.292 0 0 1-17.479-6.664 682.776 682.776 0 0 1-18.376-6.588 311.075 311.075 0 0 1-18.752-7.235c-6.22-2.624-12.135-5.479-17.713-8.585-5.48-3.176-10.552-6.648-15.17-10.409-4.433-3.891-8.373-8.086-11.79-12.561a77.608 77.608 0 0 1-7.912-14.647 84.02 84.02 0 0 1-3.926-16.332c-.558-5.729-.614-11.576-.204-17.489.568-6.008 1.555-12.069 2.918-18.152 1.425-6.17 3.157-12.361 5.158-18.557a443.974 443.974 0 0 1 6.417-18.99 1099.6 1099.6 0 0 1 6.771-19.562 1772.237 1772.237 0 0 1 6.645-20.137 649.327 649.327 0 0 1 6.645-20.269c2.274-6.682 4.726-13.194 7.407-19.459 2.766-6.151 5.837-11.984 9.253-17.456 3.588-5.264 7.558-10.129 11.923-14.566 4.532-4.246 9.425-8.104 14.647-11.596a187.477 187.477 0 0 1 16.133-9.279 410.85 410.85 0 0 1 15.908-8.073 696.318 696.318 0 0 1 14.825-7.693c4.654-2.599 9.212-5.018 13.703-7.212 4.405-2.298 8.804-4.295 13.217-5.969a80.355 80.355 0 0 1 13.585-3.738c4.742-.738 9.604-1.028 14.597-.88 5.153.276 10.431.974 15.817 2.071 5.545 1.183 11.183 2.718 16.872 4.572a263.635 263.635 0 0 1 17.579 6.398 378.374 378.374 0 0 1 17.95 7.512 484.096 484.096 0 0 1 18.089 8.134 517.066 517.066 0 0 1 18.085 8.524 428.076 428.076 0 0 1 17.957 8.948 325.853 325.853 0 0 1 17.604 9.631 238.142 238.142 0 0 1 16.893 10.686" stroke="url(#yostdn2ayp)" stroke-dasharray="21 2"/>
        <path opacity=".44" d="M517.817 278.075c4.85 3.752 9.325 7.591 13.417 11.503 4.039 3.954 7.663 7.991 10.86 12.097 3.097 4.149 5.742 8.371 7.927 12.633 2.069 4.31 3.661 8.663 4.79 13.029a67.242 67.242 0 0 1 1.657 13.286c.007 4.506-.382 9.048-1.134 13.608-.786 4.695-1.866 9.466-3.189 14.342-1.259 5.083-2.662 10.343-4.17 15.805a898.92 898.92 0 0 0-4.003 18.121 798.866 798.866 0 0 0-3.115 20.821c-.791 7.472-1.598 15.111-2.46 22.814-.844 7.748-1.899 15.369-3.262 22.721-1.595 7.07-3.684 13.647-6.339 19.607-3.111 5.417-6.891 10.08-11.368 13.944-4.942 3.299-10.524 5.868-16.653 7.785-6.352 1.646-13.017 2.923-19.838 3.988-6.635 1.29-12.998 2.675-18.958 4.269-5.48 2.176-10.461 4.677-14.941 7.48-3.981 3.398-7.56 6.978-10.801 10.618-2.968 3.957-5.807 7.72-8.605 11.17-4.298 4.809-14.182 10.914-19.989 11.919-4.274.035-8.814-.629-13.568-1.939-5.026-1.618-10.202-3.759-15.473-6.343-5.439-2.718-10.91-5.757-16.353-9.032a491.314 491.314 0 0 1-16.448-10.064c-5.482-3.31-10.894-6.63-16.222-9.941a5563.678 5563.678 0 0 0-16.132-9.223 2535.799 2535.799 0 0 0-16.344-8.362c-5.585-2.568-11.182-5.137-16.776-7.727a739.813 739.813 0 0 1-17.136-7.528 322.045 322.045 0 0 1-17.032-7.931c-5.575-2.79-10.828-5.728-15.726-8.823-4.823-3.156-9.235-6.505-13.193-10.044-3.821-3.642-7.16-7.486-10.009-11.521a65.86 65.86 0 0 1-6.438-12.998 69.7 69.7 0 0 1-2.833-14.28c-.288-5-.124-10.111.465-15.29.702-5.302 1.771-10.674 3.18-16.103a229.362 229.362 0 0 1 5.108-16.827c1.903-5.815 3.987-11.693 6.204-17.621a946.905 946.905 0 0 1 6.631-18.417 968.509 968.509 0 0 1 6.761-18.988 467.101 467.101 0 0 1 7.101-18.928c2.49-6.183 5.168-12.162 8.069-17.87 2.994-5.582 6.27-10.835 9.852-15.703a99.325 99.325 0 0 1 12.2-12.782 108.436 108.436 0 0 1 14.513-9.833 167.02 167.02 0 0 1 15.7-7.544 326.341 326.341 0 0 1 15.435-6.329 560.344 560.344 0 0 1 14.4-5.963 310.523 310.523 0 0 1 13.26-5.682c4.224-1.859 8.397-3.473 12.546-4.835 6.229-1.912 19-3.947 25.639-3.964 4.59.207 9.28.806 14.061 1.775 4.937 1.062 9.962 2.468 15.047 4.192a210.528 210.528 0 0 1 15.862 6.111 314.488 314.488 0 0 1 16.425 7.474 420.884 420.884 0 0 1 16.723 8.331 462.485 462.485 0 0 1 16.783 8.909 404.486 404.486 0 0 1 16.595 9.384 319.367 319.367 0 0 1 16.103 9.951 237.841 237.841 0 0 1 15.189 10.742" stroke="url(#y636msttbq)" stroke-dasharray="8 2"/>
        <path opacity=".47" d="M510.357 290.095c4.251 3.626 8.142 7.302 11.666 10.995 3.477 3.729 6.563 7.492 9.248 11.289 3.706 5.767 8.941 17.521 10.471 23.497 1.016 6.119 1.158 18.746.423 25.327-.576 4.583-1.387 9.3-2.382 14.169-.924 5.094-1.976 10.392-3.11 15.908-1.011 5.785-2.072 11.819-3.158 18.084-.956 6.52-1.947 13.233-2.973 20.1a572.614 572.614 0 0 1-3.25 21.05c-1.293 6.932-2.854 13.636-4.741 19.994-2.132 6.047-4.702 11.583-7.78 16.51-3.43 4.444-7.405 8.205-11.925 11.256-4.865 2.59-10.209 4.55-15.961 5.949-5.901 1.194-12.045 2.057-18.307 2.719-6.112.867-12.005 1.769-17.59 2.815-5.213 1.543-10.039 3.338-14.458 5.374a103.408 103.408 0 0 0-11.056 8.14c-4.566 4.699-12.993 13.288-17.247 16.616-4.567 2.53-14.911 4.17-20.722 3.258-4.172-1.071-8.509-2.66-12.964-4.715-4.649-2.22-9.39-4.806-14.176-7.683a359.48 359.48 0 0 1-14.851-9.305 867.749 867.749 0 0 1-15.181-9.822 4499.166 4499.166 0 0 1-15.377-9.596 9978.604 9978.604 0 0 0-15.595-9.059c-5.301-2.862-10.573-5.708-15.791-8.556a792.018 792.018 0 0 1-15.792-8.315 341.24 341.24 0 0 1-15.355-8.514c-4.981-2.929-9.619-5.932-13.908-9.013-4.228-3.126-8.053-6.37-11.466-9.72-3.298-3.433-6.143-6.994-8.537-10.67-3.145-5.732-6.919-17.94-7.59-24.385-.181-4.456.042-9.003.63-13.632.675-4.765 1.677-9.612 2.964-14.536 1.317-5.076 2.88-10.23 4.654-15.463a407.995 407.995 0 0 1 5.706-16.403 661.997 661.997 0 0 1 6.31-17.221 566.102 566.102 0 0 1 6.744-17.639 325.963 325.963 0 0 1 7.393-17.345c2.638-5.595 5.471-10.971 8.517-16.069 3.142-4.954 6.546-9.574 10.212-13.821a93.673 93.673 0 0 1 12.242-10.961 103.185 103.185 0 0 1 14.174-8.147 154.952 154.952 0 0 1 15.114-5.943 283.067 283.067 0 0 1 14.83-4.739 506.91 506.91 0 0 1 13.912-4.375c6.525-2.239 18.897-6.268 24.829-7.928 5.855-1.548 17.621-3.253 23.622-3.31 4.118.122 8.299.586 12.541 1.385 4.37.863 8.818 2.047 13.319 3.543a163.49 163.49 0 0 1 14.078 5.446 242.537 242.537 0 0 1 14.679 6.928 335.7 335.7 0 0 1 15.04 8.005 375.18 375.18 0 0 1 15.143 8.77 354.219 354.219 0 0 1 14.952 9.342c4.95 3.191 9.76 6.493 14.405 9.898a218.322 218.322 0 0 1 13.42 10.512" stroke="url(#08h9crxd2r)" stroke-dasharray="16 6"/>
        <path opacity=".7" d="M501.759 300.496c3.688 3.46 7.046 6.945 10.076 10.445 4.313 5.303 11.118 16.073 13.607 21.561 2.041 5.606 4.383 17.192 4.76 23.219.133 4.17.006 8.446-.35 12.851-.346 4.558-.879 9.28-1.572 14.167a512.198 512.198 0 0 1-2.307 15.826c-.82 5.67-1.729 11.52-2.719 17.519-.953 6.154-2 12.411-3.169 18.712-1.18 6.325-2.537 12.596-4.102 18.707-1.672 5.976-3.632 11.667-5.915 16.98-2.499 4.99-5.384 9.492-8.685 13.428a50.011 50.011 0 0 1-11.996 8.759c-4.661 1.944-9.677 3.363-14.994 4.3-5.417.797-11.008 1.307-16.697 1.623-5.583.496-10.982.989-16.152 1.575-4.897.996-9.494 2.171-13.764 3.536-5.813 2.816-15.746 9.481-20.1 12.939-4.124 3.471-12.379 8.758-16.718 10.264-4.659.746-14.9-.567-20.476-2.531-3.933-1.618-7.973-3.61-12.088-5.927-4.276-2.4-8.616-5.051-12.993-7.9a500.335 500.335 0 0 1-13.64-8.948c-4.687-3.04-9.384-6.137-14.061-9.272a2328.046 2328.046 0 0 1-14.34-9.182 1333.409 1333.409 0 0 1-14.441-8.939 639.354 639.354 0 0 1-14.278-8.795c-4.71-2.911-9.285-5.872-13.676-8.908-4.4-3.02-8.48-6.069-12.224-9.147-3.697-3.116-7.027-6.282-9.978-9.506-4.092-4.973-10.116-15.411-12.033-20.893-1.362-5.724-2.072-17.78-1.507-24.109.544-4.375 1.379-8.847 2.47-13.405 1.117-4.697 2.465-9.49 4.003-14.361a324.725 324.725 0 0 1 5.106-15.255 407.34 407.34 0 0 1 5.894-15.92 352.81 352.81 0 0 1 6.629-16.09 239.36 239.36 0 0 1 7.507-15.536c2.722-4.947 5.631-9.66 8.744-14.095 3.206-4.292 6.639-8.258 10.305-11.86a87.253 87.253 0 0 1 12.046-9.165 98.559 98.559 0 0 1 13.625-6.542 140.786 140.786 0 0 1 14.381-4.481 245.812 245.812 0 0 1 14.11-3.316 399.177 399.177 0 0 1 13.328-2.929c6.289-1.524 18.208-4.285 23.895-5.433 5.565-1.132 16.566-2.408 22.066-2.452 5.616.245 17.17 2.205 23.118 3.922a129.037 129.037 0 0 1 12.391 4.589 180.521 180.521 0 0 1 12.898 6.081 235.399 235.399 0 0 1 13.238 7.273 284.761 284.761 0 0 1 13.338 8.175 283.432 283.432 0 0 1 13.146 8.884 247.952 247.952 0 0 1 12.609 9.485 193.38 193.38 0 0 1 11.681 10.071" stroke="url(#yy6ixfdahs)" stroke-dasharray="14 18"/>
        <path opacity=".35" d="M493 310.562c4.601 4.923 12.369 14.957 15.506 20.077 3.86 6.956 6.549 14.142 8.158 21.558 1.451 7.743 1.934 15.911 1.599 24.547-.342 9.17-1.349 18.953-2.883 29.263-1.493 10.809-3.539 21.946-6.183 33.024-2.883 10.897-6.678 21.039-11.542 29.829-5.592 7.633-12.507 13.372-20.703 17.016-4.356 1.376-8.978 2.328-13.823 2.882-4.899.457-9.931.664-15.042.7-5.04.177-9.937.333-14.652.541-4.531.533-8.833 1.185-12.89 1.983-7.474 2.733-14.082 5.835-19.966 8.958-5.52 3.802-10.849 6.768-16.163 8.545-5.628 1.431-11.581 1.264-17.856-.434-6.848-2.231-14.055-5.785-21.478-10.347-7.989-4.732-16.138-10.128-24.292-15.914a686.498 686.498 0 0 1-25.538-17.491 455.87 455.87 0 0 1-12.583-8.863A280.175 280.175 0 0 1 270.7 447.4c-3.843-3.055-7.388-6.114-10.633-9.188-3.212-3.092-6.102-6.219-8.658-9.363-4.916-6.457-8.433-13.136-10.595-20.027-1.832-7.247-2.369-14.811-1.749-22.665.828-8.322 2.638-16.998 5.262-25.934 2.672-9.383 6.026-18.969 9.983-28.535 3.99-9.72 8.62-19.141 13.887-27.901 5.501-8.403 11.78-15.806 18.843-21.92a81.696 81.696 0 0 1 11.601-7.412 92.932 92.932 0 0 1 12.9-5.043 130.577 130.577 0 0 1 13.498-3.171c4.469-.84 8.904-1.516 13.258-2.043a340.613 340.613 0 0 1 24.463-3.217c7.486-1.327 14.679-2.199 21.611-2.514 6.919-.598 13.787-.389 20.63.691 7.085 1.097 14.273 3.155 21.497 6.117 7.581 3.044 15.214 6.915 22.744 11.485a210.79 210.79 0 0 1 22.88 15.475 195.915 195.915 0 0 1 10.846 8.837 162.078 162.078 0 0 1 10.028 9.484" stroke="url(#30cb5ftnwt)" stroke-dasharray="25 13"/>
        <path opacity=".89" d="M484.551 321.453c5.366 6.153 9.791 12.556 13.278 19.15 3.36 6.706 5.768 13.726 7.297 21.04 1.4 7.576 1.98 15.584 1.835 23.995-.219 8.771-1.094 17.985-2.577 27.47-1.574 9.687-3.804 19.394-6.728 28.751-3.23 8.982-7.343 17.075-12.408 23.862-5.611 5.784-12.271 9.962-19.899 12.412-8.029 1.657-16.747 2.09-25.857 1.65-8.891.027-17.291.072-25.007.432a188.159 188.159 0 0 0-19.431 5.395c-5.519 2.702-10.772 4.909-15.877 6.347-5.238 1.387-10.614 1.621-16.148.645-5.935-1.32-12.134-3.798-18.5-7.265-6.838-3.669-13.835-8.091-20.86-13.08a356.357 356.357 0 0 1-21.978-15.955c-7.43-5.53-14.52-11.334-21.046-17.379-6.566-6.026-12.093-12.117-16.53-18.274-4.255-6.295-7.35-12.781-9.304-19.432-1.717-6.932-2.333-14.143-1.957-21.587.569-7.796 2.024-15.873 4.255-24.112 2.34-8.525 5.393-17.122 9.079-25.579 3.806-8.466 8.28-16.535 13.387-23.916 5.347-6.992 11.409-13.028 18.147-17.899 7.022-4.305 14.696-7.458 22.913-9.447 8.332-1.771 16.644-2.679 24.77-2.964a287.53 287.53 0 0 1 22.997-.923c7.136-.542 13.995-.734 20.579-.534 6.538-.152 12.959.292 19.25 1.39 6.442.998 12.886 2.768 19.278 5.301 6.643 2.536 13.268 5.835 19.766 9.811a154.292 154.292 0 0 1 19.55 13.75c6.382 5.136 12.344 10.792 17.723 16.938" stroke="url(#dchqw1k1lu)" stroke-dasharray="22 19"/>
        <path opacity=".88" d="M476.376 333.769c4.495 5.744 8.218 11.809 11.18 18.125 2.862 6.407 4.941 13.147 6.277 20.18 1.223 7.21 1.725 14.767 1.559 22.602-.276 8.019-1.207 16.253-2.769 24.523-1.725 8.249-4.124 16.278-7.23 23.775-3.385 7.041-7.565 13.199-12.544 18.162-5.355 4.174-11.526 7.031-18.417 8.506-7.129.944-14.787.911-22.758.144-7.826-.4-15.321-.88-22.339-1.203-6.637.61-12.79 1.431-18.482 2.351-5.435 1.613-10.593 2.957-15.549 3.838-4.993 1.041-9.988 1.283-15.013.657-5.275-.781-10.689-2.498-16.191-5.084-5.832-2.739-11.778-6.239-17.728-10.368-6.253-4.156-12.462-8.832-18.472-13.922-6.215-5.037-12.138-10.462-17.589-16.228-5.472-5.758-10.098-11.642-13.827-17.624-3.602-6.066-6.247-12.321-7.961-18.728-1.528-6.581-2.135-13.4-1.885-20.374.423-7.198 1.645-14.559 3.596-21.973a139.438 139.438 0 0 1 8.3-22.273c3.583-7.13 7.806-13.807 12.641-19.794 5.043-5.604 10.715-10.338 16.982-14.05 6.462-3.245 13.487-5.487 20.962-6.728 7.562-1.05 15.114-1.329 22.519-1.046 7.313.022 14.424.395 21.25 1.033 6.695.19 13.154.648 19.356 1.4 6.149.393 12.148 1.204 17.967 2.494a91.585 91.585 0 0 1 17.417 5.132c5.855 2.253 11.623 5.148 17.234 8.658a116.317 116.317 0 0 1 16.617 12.245 112.57 112.57 0 0 1 14.897 15.57z" stroke="url(#6j1bu8ablv)" stroke-dasharray="9 21"/>
        <path opacity=".78" d="M467.955 347.254a86.774 86.774 0 0 1 9.166 16.814c2.342 5.94 4.012 12.178 5.048 18.636.931 6.542 1.222 13.316.901 20.191a117.915 117.915 0 0 1-3.19 20.637c-1.838 6.63-4.319 12.892-7.427 18.557-3.336 5.24-7.345 9.663-11.993 13.068-4.894 2.835-10.398 4.626-16.446 5.358-6.18.399-12.774.017-19.635-.967-6.768-.7-13.339-1.556-19.594-2.371a606.985 606.985 0 0 0-17.101-.143c-5.199.626-10.171 1.109-14.931 1.314-4.755.471-9.444.429-14.072-.21-4.767-.631-9.566-1.962-14.357-3.999-5.012-2.102-10.053-4.874-15.047-8.262-5.196-3.421-10.323-7.395-15.254-11.849a129.156 129.156 0 0 1-14.313-14.658c-4.44-5.312-8.181-10.82-11.199-16.453-2.924-5.682-5.076-11.554-6.471-17.548-1.248-6.092-1.729-12.341-1.478-18.671.4-6.421 1.506-12.907 3.267-19.328a101.863 101.863 0 0 1 7.606-18.635c3.293-5.77 7.188-11.062 11.633-15.708 4.605-4.299 9.766-7.843 15.416-10.507 5.795-2.295 12.055-3.757 18.711-4.353 6.708-.449 13.421-.227 20.035.503 6.558.552 12.985 1.45 19.205 2.594a209.03 209.03 0 0 1 17.817 3.125c5.689.958 11.221 2.215 16.559 3.825a98.224 98.224 0 0 1 15.703 5.52 91.758 91.758 0 0 1 15.028 8.119 93.349 93.349 0 0 1 14.061 11.127 93.06 93.06 0 0 1 12.352 14.274z" stroke="url(#u291hiawww)" stroke-dasharray="20 3"/>
        <path opacity=".7" d="M458.683 360.823a78.024 78.024 0 0 1 7.224 15.092 80.096 80.096 0 0 1 3.701 16.332 86.056 86.056 0 0 1 .106 16.925c-.623 5.591-1.809 11.062-3.532 16.251-1.855 5.001-4.263 9.586-7.207 13.593-3.087 3.669-6.72 6.646-10.856 8.812-4.267 1.785-9.008 2.773-14.154 2.969-5.215.006-10.757-.594-16.542-1.691-5.729-.903-11.356-1.99-16.788-3.132-5.308-.674-10.426-1.34-15.316-1.992-4.794-.207-9.412-.502-13.861-.97-4.431-.185-8.767-.693-12.993-1.58a60 60 0 0 1-12.739-3.878c-4.304-1.789-8.568-4.116-12.725-6.97-4.282-2.857-8.446-6.229-12.409-10.068a94.878 94.878 0 0 1-11.324-12.858c-3.477-4.723-6.379-9.662-8.686-14.747a71.464 71.464 0 0 1-4.889-15.7 71.66 71.66 0 0 1-.843-16.298 76.236 76.236 0 0 1 3.149-16.181 72.49 72.49 0 0 1 6.903-14.826c2.952-4.444 6.43-8.432 10.383-11.842a49.24 49.24 0 0 1 13.53-7.375c5.034-1.49 10.458-2.292 16.208-2.38 5.793.032 11.607.632 17.351 1.67a162.054 162.054 0 0 1 16.857 3.726 186.107 186.107 0 0 1 15.905 4.477c5.118 1.457 10.084 3.143 14.873 5.08a106.512 106.512 0 0 1 13.913 6.206 88.459 88.459 0 0 1 12.963 8.027 81.504 81.504 0 0 1 11.766 10.344 79.805 79.805 0 0 1 10.032 12.984z" stroke="url(#uzrhdgwlvx)" stroke-dasharray="9 9"/>
        <path opacity=".89" d="M448.08 372.891c4.543 8.387 7.124 17.376 7.843 26.388.498 8.945-.95 17.603-4.178 25.126-3.55 6.898-8.917 12.052-15.831 14.78-7.169 1.853-15.725 1.522-25.229-.778-9.376-1.755-18.547-4.143-27.125-6.679-8.389-1.308-16.402-3.127-23.849-5.737a65.055 65.055 0 0 1-21.628-10.661c-7.007-4.976-13.387-11.574-18.559-19.662-5.218-8.085-8.467-16.88-9.76-25.826-1.032-8.904-.002-17.82 2.918-26.047 3.241-7.846 8.335-14.575 15.023-19.431 6.942-4.05 15.379-6.015 24.957-5.589 9.659.79 19.409 3.265 28.749 6.793 9.279 2.976 18.208 6.787 26.437 11.271 8.269 3.941 15.984 8.868 22.774 14.832 6.889 5.759 12.878 12.833 17.458 21.22z" stroke="url(#tpax79ov7y)" stroke-dasharray="2 2"/>
        <path opacity=".2" d="M436.084 381.879c3.312 6.965 4.991 14.034 5.179 20.767.059 6.633-1.426 12.697-4.295 17.63-3.03 4.536-7.431 7.652-12.978 9.001-5.653.921-12.353.265-19.823-1.886-7.415-1.812-14.81-4.345-21.849-7.207-6.973-2.117-13.704-4.711-19.941-7.807-6.31-2.699-12.27-6.278-17.572-10.809a57.974 57.974 0 0 1-13.914-16.617c-3.721-6.597-5.85-13.594-6.446-20.511-.463-6.84.677-13.453 3.27-19.302 2.78-5.531 6.994-10.045 12.427-13.047 5.575-2.488 12.301-3.369 19.933-2.423 7.678 1.188 15.466 3.764 22.982 7.244a129.83 129.83 0 0 1 21.446 11.715c6.711 4.207 12.92 9.106 18.271 14.642 5.413 5.404 9.983 11.639 13.31 18.61z" stroke="url(#t4cgjpjkjz)" stroke-dasharray="11 8"/>
        <path opacity=".29" d="M423.043 386.704c2.213 5.364 3.194 10.485 3.063 15.08-.826 6.48-7.789 15.008-13.571 16.391-4.16.358-9.075-.378-14.581-2.217-5.494-1.646-11.036-3.984-16.369-6.717-5.327-2.367-10.503-5.17-15.278-8.327-4.819-2.913-9.302-6.37-13.175-10.322-3.949-3.886-7.285-8.402-9.715-13.453-2.451-5.047-3.693-10.15-3.806-15.005.482-6.992 6.988-17.822 12.713-20.752 4.16-1.317 9.15-1.474 14.813-.318 5.678 1.312 11.454 3.664 17.055 6.746 5.593 2.993 11.025 6.631 16.011 10.69 4.996 3.923 9.582 8.329 13.473 13.06 3.915 4.676 7.139 9.781 9.367 15.144z" stroke="url(#cd8a9j772A)" stroke-dasharray="4 26"/>
        <path opacity=".67" d="M409.541 387.148c2.237 10.146-7.272 19.478-17.313 16.876-7.202-2.458-14.656-7.011-20.97-12.403-6.388-4.993-11.74-11.32-14.515-18.218-2.797-6.889-2.358-13.068.67-17.203 3.115-3.833 8.79-5.225 16.184-3.179 7.413 2.315 15.103 7.336 21.562 13.521 6.485 6.057 11.787 13.35 14.382 20.606z" stroke="url(#1k4vyy7icB)" stroke-dasharray="24 3"/>
    </g>
    <defs>
        <linearGradient id="z0iaut41eb" x1="765.16" y1="766.192" x2="12.586" y2="17.22" gradientUnits="userSpaceOnUse">
            <stop stop-color="#54D62C"/>
            <stop offset="1" stop-color="#0F72EE"/>
        </linearGradient>
        <linearGradient id="uahwudehsc" x1="729.087" y1="773.64" x2="46.719" y2="10.073" gradientUnits="userSpaceOnUse">
            <stop stop-color="#54D62C"/>
            <stop offset="1" stop-color="#0F72EE"/>
        </linearGradient>
        <linearGradient id="3780vapimd" x1="693.526" y1="778.254" x2="80.39" y2="5.528" gradientUnits="userSpaceOnUse">
            <stop stop-color="#54D62C"/>
            <stop offset="1" stop-color="#0F72EE"/>
        </linearGradient>
        <linearGradient id="xoc1qntnue" x1="658.715" y1="780.091" x2="113.478" y2="3.476" gradientUnits="userSpaceOnUse">
            <stop stop-color="#54D62C"/>
            <stop offset="1" stop-color="#0F72EE"/>
        </linearGradient>
        <linearGradient id="5zng6sjspf" x1="624.817" y1="779.275" x2="145.77" y2="3.871" gradientUnits="userSpaceOnUse">
            <stop stop-color="#54D62C"/>
            <stop offset="1" stop-color="#0F72EE"/>
        </linearGradient>
        <linearGradient id="2rl8c9fo6g" x1="592.037" y1="775.92" x2="177.108" y2="6.642" gradientUnits="userSpaceOnUse">
            <stop stop-color="#54D62C"/>
            <stop offset="1" stop-color="#0F72EE"/>
        </linearGradient>
        <linearGradient id="qz0kgszguh" x1="560.535" y1="770.126" x2="207.314" y2="11.655" gradientUnits="userSpaceOnUse">
            <stop stop-color="#54D62C"/>
            <stop offset="1" stop-color="#0F72EE"/>
        </linearGradient>
        <linearGradient id="6bjlpiivki" x1="530.711" y1="761.571" x2="237.04" y2="18.6" gradientUnits="userSpaceOnUse">
            <stop stop-color="#54D62C"/>
            <stop offset="1" stop-color="#0F72EE"/>
        </linearGradient>
        <linearGradient id="97jnztdpcj" x1="500.911" y1="751.182" x2="262.065" y2="28.867" gradientUnits="userSpaceOnUse">
            <stop stop-color="#54D62C"/>
            <stop offset="1" stop-color="#0F72EE"/>
        </linearGradient>
        <linearGradient id="aw591bb4vk" x1="474.645" y1="739.089" x2="288.663" y2="39.604" gradientUnits="userSpaceOnUse">
            <stop stop-color="#54D62C"/>
            <stop offset="1" stop-color="#0F72EE"/>
        </linearGradient>
        <linearGradient id="bydt68w4pl" x1="449.869" y1="725.007" x2="312.923" y2="52.44" gradientUnits="userSpaceOnUse">
            <stop stop-color="#54D62C"/>
            <stop offset="1" stop-color="#0F72EE"/>
        </linearGradient>
        <linearGradient id="yotp89jwqm" x1="427.099" y1="709.319" x2="335.37" y2="66.883" gradientUnits="userSpaceOnUse">
            <stop stop-color="#54D62C"/>
            <stop offset="1" stop-color="#0F72EE"/>
        </linearGradient>
        <linearGradient id="0vt30v8i3n" x1="406.41" y1="692.194" x2="355.883" y2="82.754" gradientUnits="userSpaceOnUse">
            <stop stop-color="#54D62C"/>
            <stop offset="1" stop-color="#0F72EE"/>
        </linearGradient>
        <linearGradient id="625juqtr3o" x1="387.896" y1="673.834" x2="374.373" y2="99.898" gradientUnits="userSpaceOnUse">
            <stop stop-color="#54D62C"/>
            <stop offset="1" stop-color="#0F72EE"/>
        </linearGradient>
        <linearGradient id="yostdn2ayp" x1="371.558" y1="654.361" x2="390.638" y2="118.136" gradientUnits="userSpaceOnUse">
            <stop stop-color="#54D62C"/>
            <stop offset="1" stop-color="#0F72EE"/>
        </linearGradient>
        <linearGradient id="y636msttbq" x1="357.451" y1="633.908" x2="404.563" y2="137.244" gradientUnits="userSpaceOnUse">
            <stop stop-color="#54D62C"/>
            <stop offset="1" stop-color="#0F72EE"/>
        </linearGradient>
        <linearGradient id="08h9crxd2r" x1="345.666" y1="612.724" x2="416.163" y2="157.043" gradientUnits="userSpaceOnUse">
            <stop stop-color="#54D62C"/>
            <stop offset="1" stop-color="#0F72EE"/>
        </linearGradient>
        <linearGradient id="yy6ixfdahs" x1="336.697" y1="590.861" x2="426.436" y2="177.834" gradientUnits="userSpaceOnUse">
            <stop stop-color="#54D62C"/>
            <stop offset="1" stop-color="#0F72EE"/>
        </linearGradient>
        <linearGradient id="30cb5ftnwt" x1="329.398" y1="568.967" x2="432.681" y2="197.962" gradientUnits="userSpaceOnUse">
            <stop stop-color="#54D62C"/>
            <stop offset="1" stop-color="#0F72EE"/>
        </linearGradient>
        <linearGradient id="dchqw1k1lu" x1="324.859" y1="547.029" x2="437.474" y2="218.753" gradientUnits="userSpaceOnUse">
            <stop stop-color="#54D62C"/>
            <stop offset="1" stop-color="#0F72EE"/>
        </linearGradient>
        <linearGradient id="6j1bu8ablv" x1="322.725" y1="525.263" x2="440.234" y2="239.406" gradientUnits="userSpaceOnUse">
            <stop stop-color="#54D62C"/>
            <stop offset="1" stop-color="#0F72EE"/>
        </linearGradient>
        <linearGradient id="u291hiawww" x1="322.928" y1="503.833" x2="440.723" y2="259.797" gradientUnits="userSpaceOnUse">
            <stop stop-color="#54D62C"/>
            <stop offset="1" stop-color="#0F72EE"/>
        </linearGradient>
        <linearGradient id="uzrhdgwlvx" x1="325.427" y1="482.903" x2="438.962" y2="279.719" gradientUnits="userSpaceOnUse">
            <stop stop-color="#54D62C"/>
            <stop offset="1" stop-color="#0F72EE"/>
        </linearGradient>
        <linearGradient id="tpax79ov7y" x1="330.136" y1="462.602" x2="434.619" y2="299.043" gradientUnits="userSpaceOnUse">
            <stop stop-color="#54D62C"/>
            <stop offset="1" stop-color="#0F72EE"/>
        </linearGradient>
        <linearGradient id="t4cgjpjkjz" x1="336.961" y1="443.223" x2="428.431" y2="317.346" gradientUnits="userSpaceOnUse">
            <stop stop-color="#54D62C"/>
            <stop offset="1" stop-color="#0F72EE"/>
        </linearGradient>
        <linearGradient id="cd8a9j772A" x1="345.829" y1="424.875" x2="420.065" y2="334.574" gradientUnits="userSpaceOnUse">
            <stop stop-color="#54D62C"/>
            <stop offset="1" stop-color="#0F72EE"/>
        </linearGradient>
        <linearGradient id="1k4vyy7icB" x1="356.577" y1="406.093" x2="407.842" y2="350.008" gradientUnits="userSpaceOnUse">
            <stop stop-color="#54D62C"/>
            <stop offset="1" stop-color="#0F72EE"/>
        </linearGradient>
        <clipPath id="0z0end5d1a">
            <path fill="#fff" d="M0 0h500v501H0z"/>
        </clipPath>
    </defs>
</svg>
